<?xml version="1.0" standalone="no"?>
<!DOCTYPE svg PUBLIC "-//W3C//DTD SVG 1.1//EN" "http://www.w3.org/Graphics/SVG/1.1/DTD/svg11.dtd" >
<svg>
<metadata>
Created by FontForge 20110222 at Tue Dec  3 05:05:33 2013
 By Orthosie Webhosting
Copyright (c) 1990-1996 ParaGraph. All Rights Reserved. Avant Garde Gothic is a registered trade mark of International Typeface Corporation.
</metadata>
<defs>
<font id="AvantGardeGothicCTTRegular" horiz-adv-x="554" >
  <font-face 
    font-family="AvantGardeGothicCTTRegular"
    font-weight="400"
    font-stretch="normal"
    units-per-em="1000"
    panose-1="0 0 0 0 0 0 0 0 0 0"
    ascent="800"
    descent="-200"
    x-height="547"
    cap-height="740"
    bbox="-454 -214 1156 952"
    underline-thickness="40"
    underline-position="-60"
    unicode-range="U+0020-F002"
  />
<missing-glyph horiz-adv-x="450" 
d="M50 0v512h400v-512h-400zM58 8h384v496h-384v-496z" />
    <glyph glyph-name=".notdef" horiz-adv-x="450" 
d="M50 0v512h400v-512h-400zM58 8h384v496h-384v-496z" />
    <glyph glyph-name="glyph1" horiz-adv-x="0" 
 />
    <glyph glyph-name="glyph2" horiz-adv-x="295" 
 />
    <glyph glyph-name="space" unicode=" " horiz-adv-x="233" 
 />
    <glyph glyph-name="space" unicode="&#x45d;" horiz-adv-x="233" 
 />
    <glyph glyph-name="space" unicode="&#x40d;" horiz-adv-x="233" 
 />
    <glyph glyph-name="space" unicode="&#xa0;" horiz-adv-x="233" 
 />
    <glyph glyph-name="exclam" unicode="!" horiz-adv-x="295" 
d="M111 0v126h74v-126h-74zM111 193v547h74v-547h-74z" />
    <glyph glyph-name="quotedbl" unicode="&#x22;" horiz-adv-x="309" 
d="M73 514v226h52v-226h-52zM184 514v226h52v-226h-52z" />
    <glyph glyph-name="numbersign" unicode="#" 
d="M258 0h-42l74 250h-96l-74 -250h-42l74 250h-150l17 58h150l36 124h-150l17 58h150l73 250h42l-73 -250h96l73 250h42l-73 -250h150l-17 -58h-150l-36 -124h150l-17 -58h-150zM307 308l36 124h-96l-36 -124h96z" />
    <glyph glyph-name="dollar" unicode="$" 
d="M245 -54v83q-72 10 -121 61.5t-49 124.5v12h70q-1 -61 36 -99.5t97 -38.5q58 0 93.5 38t36.5 93q0 54 -31.5 87t-103.5 55q-96 28 -136 73t-39 115q0 68 41 116t106 59v83h65v-83q70 -8 114.5 -59t47.5 -123h-70q-1 54 -35 88t-86 34q-51 0 -81.5 -33.5t-30.5 -86.5
q0 -45 25 -72t95 -46q98 -28 144 -79t46 -127q-1 -79 -50.5 -131t-118.5 -61v-83h-65z" />
    <glyph glyph-name="percent" unicode="%" horiz-adv-x="775" 
d="M185 0l332 740h72l-332 -740h-72zM18 578q-1 73 50.5 124t124.5 51t124 -51t51 -124q-1 -73 -51.5 -124.5t-123.5 -50.5q-73 0 -124 51t-51 124zM88 578q-1 -44 30 -74.5t75 -30.5q43 0 74 30.5t31 74.5q0 43 -31 74t-74 31q-44 0 -75 -31t-30 -74zM407 162q0 73 51 124
t124 51t123.5 -51t51.5 -124q0 -73 -51 -124t-124 -51t-124 51t-51 124zM477 162q0 -44 30.5 -74.5t74.5 -30.5q43 0 73.5 30.5t31.5 74.5q0 43 -31 74t-74 31q-44 0 -74.5 -31t-30.5 -74z" />
    <glyph glyph-name="ampersand" unicode="&#x26;" horiz-adv-x="757" 
d="M602 480h83l-137 -261l187 -182l-53 -50l-169 165l-16 -27q-45 -76 -93.5 -106.5t-117.5 -31.5q-104 0 -166.5 64.5t-62.5 164.5q0 78 47 133t123 83q-40 33 -61 73.5t-21 84.5q0 72 49.5 117.5t123.5 45.5q78 0 130 -49t52 -128q-1 -54 -39.5 -95.5t-105.5 -70.5
l140 -138zM280 379l-37 -17q-53 -25 -82.5 -64.5t-29.5 -87.5q0 -65 41.5 -110.5t107.5 -45.5q49 0 87.5 27t72.5 90l18 34zM293 471l11 -9q59 22 90.5 53.5t31.5 70.5q0 41 -28.5 70.5t-75.5 29.5q-43 0 -73.5 -24.5t-29.5 -68.5q0 -30 17.5 -60.5t56.5 -61.5z" />
    <glyph glyph-name="quotesingle" unicode="'" horiz-adv-x="198" 
d="M74 514v226h50v-226h-50z" />
    <glyph glyph-name="parenleft" unicode="(" horiz-adv-x="369" 
d="M334 740v-65q-96 -57 -150 -155t-54 -213q0 -116 54 -213.5t150 -154.5v-65q-126 50 -202 167t-76 266q0 148 76 265.5t202 167.5z" />
    <glyph glyph-name="parenright" unicode=")" horiz-adv-x="369" 
d="M35 -126v65q95 57 149.5 154.5t54.5 213.5q0 115 -54.5 213t-149.5 155v65q125 -50 201.5 -167.5t76.5 -265.5q0 -149 -76.5 -266t-201.5 -167z" />
    <glyph glyph-name="asterisk" unicode="*" horiz-adv-x="425" 
d="M361 633v-51h-100l53 -88l-46 -28l-54 90l-52 -90l-48 28l54 88h-103v51h103l-54 90l48 28l52 -90l54 90l46 -28l-53 -90h100z" />
    <glyph glyph-name="plus" unicode="+" horiz-adv-x="606" 
d="M265 341v214h76v-214h214v-76h-214v-214h-76v214h-214v76h214z" />
    <glyph glyph-name="comma" unicode="," horiz-adv-x="277" 
d="M41 -67l88 193h74l-88 -193h-74z" />
    <glyph glyph-name="hyphenminus" unicode="-" horiz-adv-x="332" 
d="M30 334h272v-67h-272v67z" />
    <glyph glyph-name="period" unicode="." horiz-adv-x="277" 
d="M101 0v126h74v-126h-74z" />
    <glyph glyph-name="slash" unicode="/" horiz-adv-x="437" 
d="M40 -126l289 866h68l-291 -866h-66z" />
    <glyph glyph-name="zero" unicode="0" 
d="M30 265v210q0 129 61 203.5t186 74.5q124 0 185.5 -74.5t61.5 -203.5v-210q-1 -130 -62 -204t-185 -74q-125 1 -186 74.5t-61 203.5zM104 458v-176q0 -114 43 -171t130 -57q86 0 129.5 57t43.5 171v176q0 113 -43.5 170.5t-129.5 57.5q-87 -1 -130 -58t-43 -170z" />
    <glyph glyph-name="one" unicode="1" 
d="M330 0v652l-163 -234l-55 42l197 280h95v-740h-74z" />
    <glyph glyph-name="two" unicode="2" 
d="M34 0v66l285 275q75 72 94.5 108.5t19.5 76.5q0 65 -43.5 112.5t-118.5 47.5q-79 0 -120.5 -55t-36.5 -129h-74q-6 110 61.5 180.5t175.5 70.5q99 0 164.5 -61.5t65.5 -164.5q0 -56 -23 -103t-113 -133l-235 -224h367v-67h-469z" />
    <glyph glyph-name="three" unicode="3" 
d="M159 557h-74q-4 86 50.5 140.5t138.5 55.5q84 -1 133.5 -55t50.5 -134q0 -41 -21.5 -79.5t-61.5 -61.5q60 -20 95 -74.5t36 -123.5q0 -101 -68 -169.5t-170 -68.5q-105 1 -168 68t-65 176h74q0 -78 45 -127.5t114 -49.5q68 -1 116 48.5t48 121.5q0 76 -49.5 120
t-141.5 44h-19v67h29q66 0 99.5 32t33.5 83q0 49 -30.5 82.5t-81.5 33.5q-55 0 -86.5 -39t-26.5 -90z" />
    <glyph glyph-name="four" unicode="4" 
d="M386 0v135h-374v67l358 538h90v-538h67v-67h-67v-135h-74zM386 202v435l-287 -435h287z" />
    <glyph glyph-name="five" unicode="5" 
d="M66 375l67 365h334v-67h-274l-37 -205q28 17 58 26t67 9q110 0 178.5 -72.5t68.5 -184.5q0 -110 -70 -184.5t-178 -74.5q-106 0 -177 69.5t-77 175.5h74q2 -79 53.5 -129t122.5 -49q73 0 125.5 51t52.5 139q-1 82 -49 137t-128 55q-46 0 -86.5 -23t-65.5 -59z" />
    <glyph glyph-name="six" unicode="6" horiz-adv-x="553" 
d="M294 740h86l-175 -261q20 12 41 17.5t47 5.5q104 -1 169.5 -75t65.5 -182q0 -111 -71 -184t-183 -74q-114 0 -182 73t-67 184q0 49 14.5 92t68.5 124zM275 435q-74 0 -125 -52t-51 -134q0 -90 52 -142.5t126 -52.5q78 -1 127 54t50 135q0 83 -49.5 137.5t-129.5 54.5z
" />
    <glyph glyph-name="seven" unicode="7" 
d="M108 0l304 673h-348v67h426v-67l-302 -673h-80z" />
    <glyph glyph-name="eight" unicode="8" 
d="M167 413q-42 23 -64 62.5t-22 87.5q0 83 56.5 136.5t142.5 53.5t139 -54.5t54 -140.5q0 -44 -23 -83.5t-65 -61.5q61 -27 94 -80.5t33 -114.5q0 -98 -70.5 -164.5t-167.5 -66.5q-101 0 -167 67.5t-65 162.5q0 63 34 116t91 80zM275 375q-68 0 -113.5 -47t-45.5 -115
q0 -67 43 -113t115 -46t117.5 47t46.5 117q0 67 -48 112t-115 45zM280 686q-53 -1 -89 -33.5t-36 -85.5q-1 -54 33.5 -89.5t90.5 -35.5q52 0 86 35.5t34 86.5q0 54 -34.5 88t-84.5 34z" />
    <glyph glyph-name="nine" unicode="9" horiz-adv-x="553" 
d="M259 0h-86l175 260q-21 -13 -42 -18t-46 -5q-105 0 -170 74.5t-65 183.5q0 111 70 184.5t184 73.5q112 0 180.5 -73.5t68.5 -184.5q-1 -48 -18 -96t-65 -120zM278 304q73 0 124.5 51.5t51.5 134.5q-1 80 -48.5 138t-129.5 58q-79 0 -128.5 -55t-48.5 -134
q0 -84 49 -138.5t130 -54.5z" />
    <glyph glyph-name="colon" unicode=":" horiz-adv-x="277" 
d="M101 0v126h74v-126h-74zM101 384v126h74v-126h-74z" />
    <glyph glyph-name="semicolon" unicode=";" horiz-adv-x="277" 
d="M129 384v126h74v-126h-74zM41 -67l88 193h74l-88 -193h-74z" />
    <glyph glyph-name="less" unicode="&#x3c;" horiz-adv-x="606" 
d="M144 301l414 -191v-73l-509 232v64l509 232v-73z" />
    <glyph glyph-name="equal" unicode="=" horiz-adv-x="606" 
d="M555 436v-75h-504v75h504zM555 241v-75h-504v75h504z" />
    <glyph glyph-name="greater" unicode="&#x3e;" horiz-adv-x="606" 
d="M462 301l-414 191v73l509 -232v-64l-509 -232v73z" />
    <glyph glyph-name="question" unicode="?" horiz-adv-x="591" 
d="M255 0v126h74v-126h-74zM127 510h-71q-7 106 62.5 174.5t174.5 68.5q101 0 162 -63.5t61 -161.5q0 -43 -17.5 -78t-75.5 -92q-61 -59 -78 -91.5t-16 -73.5h-74q-1 52 20.5 97.5t80.5 102.5q63 61 74.5 85.5t11.5 57.5q0 67 -45 108.5t-111 41.5q-75 0 -119.5 -52
t-39.5 -124z" />
    <glyph glyph-name="at" unicode="@" horiz-adv-x="867" 
d="M637 578l-63 -319q-2 -8 -3 -18.5t-1 -15.5q0 -14 8.5 -22t27.5 -8q58 0 103 68t46 160q0 125 -84 204.5t-226 79.5q-157 0 -246 -95.5t-88 -238.5q0 -146 94 -243t242 -97q65 0 126 18.5t117 52.5l24 -39q-64 -41 -130 -59.5t-137 -18.5q-173 1 -280 106.5t-107 279.5
q0 179 110.5 279.5t277.5 100.5q167 -1 262.5 -93.5t95.5 -236.5q0 -113 -64 -193.5t-146 -80.5q-31 0 -53.5 17.5t-24.5 49.5q-21 -30 -56 -48.5t-73 -18.5q-81 0 -129 52t-47 134q-1 109 57 186t165 77q48 0 79.5 -17t48.5 -50l10 47h64zM394 201q64 0 104.5 61t40.5 156
q0 64 -27.5 95.5t-71.5 32.5q-71 0 -114 -60.5t-43 -150.5q0 -62 29.5 -98t81.5 -36z" />
    <glyph glyph-name="A" unicode="A" horiz-adv-x="740" 
d="M11 0l319 740h82l317 -740h-80l-107 248h-344l-107 -248h-80zM227 315h286l-142 339z" />
    <glyph glyph-name="B" unicode="B" horiz-adv-x="574" 
d="M74 0v740h185q121 -1 183 -48t62 -147q0 -49 -24 -86t-65 -62q58 -18 93.5 -67.5t35.5 -120.5q0 -96 -69 -152.5t-198 -56.5h-203zM148 67h129q96 -1 144 35t48 106q0 73 -47 110t-145 38h-129v-289zM148 423h111q85 -1 128 31t43 94q-1 65 -43.5 95t-127.5 30h-111v-250
z" />
    <glyph glyph-name="C" unicode="C" horiz-adv-x="813" 
d="M767 551h-88q-39 61 -103.5 98t-148.5 37q-137 0 -224.5 -92.5t-86.5 -221.5q-1 -136 91 -227.5t225 -90.5q71 0 139 35t111 104h88q-53 -97 -142 -151.5t-196 -54.5q-165 0 -277.5 108.5t-112.5 276.5q0 163 111 272t273 109q115 0 204.5 -53.5t136.5 -148.5z" />
    <glyph glyph-name="D" unicode="D" horiz-adv-x="744" 
d="M74 0v740h203q212 0 318.5 -103.5t106.5 -265.5q-1 -170 -116 -270.5t-304 -100.5h-208zM148 67h134q154 -1 250 82.5t96 221.5q0 131 -89 216t-262 86h-129v-606z" />
    <glyph glyph-name="E" unicode="E" horiz-adv-x="536" 
d="M74 0v740h406v-67h-332v-267h321v-67h-321v-272h332v-67h-406z" />
    <glyph glyph-name="F" unicode="F" horiz-adv-x="485" 
d="M74 0v740h375v-67h-301v-268h290v-67h-290v-338h-74z" />
    <glyph glyph-name="G" unicode="G" horiz-adv-x="872" 
d="M328 341h502q-16 -158 -123.5 -255.5t-264.5 -98.5q-183 0 -292 114.5t-108 271.5q0 158 110.5 269t289.5 111q117 0 207.5 -54t136.5 -155h-88q-39 70 -107 106t-149 36q-145 0 -235.5 -91.5t-90.5 -222.5q0 -122 91 -220t238 -98q98 -1 181.5 57.5t114.5 162.5h-413v67
z" />
    <glyph glyph-name="H" unicode="H" horiz-adv-x="683" 
d="M74 0v740h74v-326h387v326h74v-740h-74v347h-387v-347h-74z" />
    <glyph glyph-name="I" unicode="I" horiz-adv-x="226" 
d="M76 0v740h74v-740h-74z" />
    <glyph glyph-name="J" unicode="J" horiz-adv-x="482" 
d="M408 740v-518q-1 -117 -47.5 -176t-143.5 -59q-89 0 -145 50t-59 138h74q4 -56 39 -88.5t91 -32.5q62 0 89.5 39t27.5 129v518h74z" />
    <glyph glyph-name="K" unicode="K" horiz-adv-x="591" 
d="M74 0v740h74v-434l348 434h87l-292 -361l292 -379h-92l-247 320l-96 -118v-202h-74z" />
    <glyph glyph-name="L" unicode="L" horiz-adv-x="462" 
d="M74 0v740h74v-673h306v-67h-380z" />
    <glyph glyph-name="M" unicode="M" horiz-adv-x="919" 
d="M74 0v740h114l272 -630l272 630h114v-740h-74v657l-281 -657h-62l-281 657v-657h-74z" />
    <glyph glyph-name="N" unicode="N" horiz-adv-x="740" 
d="M74 0v740h100l418 -614v614h74v-740h-74l-444 650v-650h-74z" />
    <glyph glyph-name="O" unicode="O" horiz-adv-x="869" 
d="M434 753q166 0 279 -108t113 -271q0 -166 -113.5 -276.5t-278.5 -110.5q-166 0 -279 108t-113 273t113 275t279 110zM435 54q135 0 226 90.5t91 229.5q0 136 -91 224t-226 88q-137 0 -228 -90.5t-91 -227.5q0 -138 91.5 -226t227.5 -88z" />
    <glyph glyph-name="P" unicode="P" horiz-adv-x="592" 
d="M74 0v740h234q118 -1 186.5 -57.5t68.5 -164.5q0 -104 -69 -162.5t-186 -58.5h-160v-297h-74zM148 673v-309h161q83 0 131.5 40.5t48.5 113.5t-48.5 114t-131.5 41h-161z" />
    <glyph glyph-name="Q" unicode="Q" horiz-adv-x="871" 
d="M659 53q-51 -35 -107.5 -50.5t-116.5 -15.5q-166 0 -280 108t-113 273q0 165 113 275t280 110q166 0 279.5 -108t113.5 -271q0 -79 -28 -149.5t-86 -127.5q22 -24 48.5 -34.5t55.5 -8.5v-67q-46 -2 -87 15t-72 51zM152 217q41 -77 115 -120t169 -43q52 -1 94.5 11.5
t76.5 34.5q-73 71 -157.5 105t-166.5 34q-36 0 -67.5 -5.5t-63.5 -16.5zM663 145q43 45 67 102t24 127q0 136 -91.5 224t-226.5 88q-137 -1 -228.5 -91t-91.5 -227q0 -23 2.5 -45t8.5 -44q40 13 80.5 20t81.5 7q106 0 202.5 -43.5t171.5 -117.5z" />
    <glyph glyph-name="R" unicode="R" horiz-adv-x="607" 
d="M74 0v740h207q148 -1 220.5 -66t73.5 -176q0 -91 -60.5 -153.5t-157.5 -68.5l208 -276h-92l-251 335h59q111 0 165 45t55 125q0 78 -56 122.5t-164 45.5h-133v-673h-74z" />
    <glyph glyph-name="S" unicode="S" horiz-adv-x="498" 
d="M22 207h74q3 -67 41 -110t112 -43q70 -1 111.5 43t41.5 107q0 48 -25.5 81.5t-73.5 52.5q-209 80 -233.5 117t-24.5 97q0 84 57.5 142.5t152.5 58.5q86 0 143.5 -55t59.5 -145h-74q-4 63 -41 98t-97 35q-58 0 -92.5 -36.5t-34.5 -98.5q0 -52 30 -79.5t116 -50.5
q125 -35 168 -88.5t43 -129.5q-1 -95 -65 -155.5t-160 -60.5q-98 0 -164 62t-65 158z" />
    <glyph glyph-name="T" unicode="T" horiz-adv-x="426" 
d="M176 0v673h-169v67h412v-67h-169v-673h-74z" />
    <glyph glyph-name="U" unicode="U" horiz-adv-x="655" 
d="M74 740h74v-450q-1 -123 47 -179.5t133 -56.5q84 -1 131.5 56t48.5 180v450h74v-450q-1 -155 -69 -229t-185 -74q-118 1 -186.5 74.5t-67.5 228.5v450z" />
    <glyph glyph-name="V" unicode="V" horiz-adv-x="702" 
d="M315 0l-305 740h81l259 -648l261 648h81l-307 -740h-70z" />
    <glyph glyph-name="W" unicode="W" horiz-adv-x="960" 
d="M220 0l-210 740h77l181 -645l177 645h70l177 -645l181 645h77l-210 -740h-97l-163 606l-163 -606h-97z" />
    <glyph glyph-name="X" unicode="X" horiz-adv-x="609" 
d="M8 0l251 378l-236 362h87l195 -297l194 297h87l-239 -362l254 -378h-87l-209 316l-210 -316h-87z" />
    <glyph glyph-name="Y" unicode="Y" horiz-adv-x="592" 
d="M259 0v248l-253 492h81l209 -415l209 415h81l-253 -492v-248h-74z" />
    <glyph glyph-name="Z" unicode="Z" horiz-adv-x="480" 
d="M17 0v67l362 606h-351v67h435v-67l-362 -606h373v-67h-457z" />
    <glyph glyph-name="bracketleft" unicode="[" horiz-adv-x="351" 
d="M313 -50v-76q-99 26 -150 101.5t-51 185.5v289q-1 107 48 184t153 106v-76q-63 -24 -96 -76t-33 -138v-277q-1 -98 31.5 -148.5t97.5 -74.5z" />
    <glyph glyph-name="backslash" unicode="\" horiz-adv-x="605" 
d="M394 0l-310 740h71l309 -740h-70z" />
    <glyph glyph-name="bracketright" unicode="]" horiz-adv-x="351" 
d="M38 -126v76q64 24 96.5 74.5t32.5 148.5v277q0 86 -33.5 138t-95.5 76v76q103 -29 152 -106t49 -184v-289q-1 -110 -52 -185.5t-149 -101.5z" />
    <glyph glyph-name="asciicircum" unicode="^" horiz-adv-x="604" 
d="M302 664l-220 -484h-64l255 560h58l255 -560h-64z" />
    <glyph glyph-name="underscore" unicode="_" horiz-adv-x="500" 
d="M500 -125h-500v58h500v-58z" />
    <glyph glyph-name="grave" unicode="`" horiz-adv-x="378" 
d="M106 779l198 -108l-33 -58l-197 106z" />
    <glyph glyph-name="a" unicode="a" horiz-adv-x="683" 
d="M620 547v-547h-70v102h-2q-39 -59 -93.5 -87t-119.5 -28q-125 0 -209 81.5t-84 208.5q0 122 83.5 202.5t207.5 80.5q71 0 125 -27t90 -81h2v95h70zM333 493q-91 0 -154.5 -64t-62.5 -158q0 -93 64.5 -155t154.5 -62q89 0 152 63t63 153q0 93 -62.5 158t-154.5 65z" />
    <glyph glyph-name="b" unicode="b" horiz-adv-x="682" 
d="M63 740h74v-287h2q35 54 90 80.5t120 26.5q126 0 208.5 -81.5t82.5 -207.5q0 -122 -84 -203t-209 -81q-69 1 -123 27t-89 80h-2v-94h-70v740zM349 493q-93 -1 -154.5 -65t-61.5 -158q0 -90 62 -153t152 -63t154.5 62t64.5 155q0 94 -62.5 157.5t-154.5 64.5z" />
    <glyph glyph-name="c" unicode="c" horiz-adv-x="647" 
d="M518 160h82q-37 -82 -105 -127.5t-161 -45.5q-134 0 -213.5 86t-78.5 201q0 122 85.5 204t206.5 82q93 0 163.5 -48.5t103.5 -130.5h-83q-29 57 -79 84t-105 28q-95 0 -156.5 -63.5t-61.5 -154.5q0 -93 63.5 -157t154.5 -64q57 0 106 27.5t78 78.5z" />
    <glyph glyph-name="d" unicode="d" horiz-adv-x="685" 
d="M622 740v-740h-70v100h-2q-38 -55 -93 -84t-121 -29q-124 0 -208 82.5t-84 207.5q0 120 83.5 201.5t206.5 81.5q69 0 122.5 -27t89.5 -81h2v288h74zM334 493q-91 0 -153.5 -64t-62.5 -158q0 -93 64 -155t154 -62t153 62t63 154q0 94 -62 158t-156 65z" />
    <glyph glyph-name="e" unicode="e" horiz-adv-x="650" 
d="M608 247h-489q6 -83 64 -138t144 -55q63 0 114 33t77 91h77q-34 -89 -105 -140t-163 -51q-122 0 -203.5 81.5t-81.5 204.5q0 124 83 205.5t202 81.5q128 0 205 -88t76 -225zM119 314h409q-16 81 -72.5 130t-128.5 49q-79 -1 -137 -51t-71 -128z" />
    <glyph glyph-name="f" unicode="f" horiz-adv-x="314" 
d="M98 0v480h-85v67h85v11q0 81 52 131.5t143 50.5h15v-67h-15q-61 0 -91 -31t-30 -84v-11h136v-67h-136v-480h-74z" />
    <glyph glyph-name="g" unicode="g" horiz-adv-x="673" 
d="M610 547v-469q0 -133 -72 -212.5t-202 -79.5q-102 1 -175.5 55.5t-101.5 145.5h74q26 -64 82.5 -99t119.5 -35q102 0 151 59.5t50 165.5v30h-2q-28 -57 -81.5 -89t-125.5 -32q-122 0 -203.5 83.5t-81.5 201.5q0 121 80 204.5t201 83.5q74 0 129.5 -31.5t85.5 -87.5h2v106
h70zM324 493q-90 0 -149 -63t-59 -154q0 -92 59.5 -157t152.5 -65q91 -1 151.5 63t60.5 156q0 93 -63.5 156t-152.5 64z" />
    <glyph glyph-name="h" unicode="h" horiz-adv-x="610" 
d="M63 0v740h74v-272q31 46 76.5 69t100.5 23q113 0 175.5 -74.5t63.5 -197.5v-288h-74v288q0 103 -47 154t-127 51q-78 0 -123.5 -49t-44.5 -144v-300h-74z" />
    <glyph glyph-name="i" unicode="i" horiz-adv-x="200" 
d="M63 0v547h74v-547h-74zM63 614v126h74v-126h-74z" />
    <glyph glyph-name="j" unicode="j" horiz-adv-x="203" 
d="M140 547v-505q0 -53 -3.5 -76.5t-10.5 -43.5q-20 -51 -68 -82.5t-103 -31.5v71q53 1 82 35.5t29 127.5v505h74zM66 614v126h74v-126h-74z" />
    <glyph glyph-name="k" unicode="k" horiz-adv-x="502" 
d="M63 0v740h74v-534l258 341h88l-212 -274l226 -273h-95l-178 216l-87 -112v-104h-74z" />
    <glyph glyph-name="l" unicode="l" horiz-adv-x="200" 
d="M63 0v740h74v-740h-74z" />
    <glyph glyph-name="m" unicode="m" horiz-adv-x="938" 
d="M63 0v547h70v-71h2q24 41 64 62.5t86 21.5q61 0 110 -27t76 -78q28 49 78 77.5t107 28.5q94 0 157.5 -64t63.5 -185v-312h-74v313q0 91 -43.5 135.5t-107.5 44.5q-34 0 -63.5 -14t-47.5 -35t-26 -47t-8 -84v-313h-74v313q0 82 -37.5 131t-110.5 49q-71 -1 -109.5 -47
t-38.5 -133v-313h-74z" />
    <glyph glyph-name="n" unicode="n" horiz-adv-x="610" 
d="M63 0v547h70v-79h2q30 45 76.5 68.5t102.5 23.5q113 0 176 -74.5t63 -197.5v-288h-74v288q0 103 -47 154t-127 51q-78 0 -123.5 -49t-44.5 -144v-300h-74z" />
    <glyph glyph-name="o" unicode="o" horiz-adv-x="655" 
d="M328 560q121 -1 203.5 -83t82.5 -204q0 -123 -82.5 -204.5t-203.5 -81.5q-122 1 -204 82t-82 204q0 122 82 204.5t204 82.5zM328 493q-92 0 -152 -63.5t-60 -156.5q0 -94 60 -156.5t152 -62.5q91 0 151.5 62.5t60.5 156.5q-1 93 -61 156t-151 64z" />
    <glyph glyph-name="p" unicode="p" horiz-adv-x="682" 
d="M63 -192v739h70v-94h2q36 51 91 79t123 28q122 0 206.5 -81t84.5 -208q0 -123 -84 -203t-209 -81q-71 0 -124 30t-84 85h-2v-294h-74zM349 493q-94 0 -155 -65t-61 -158q0 -92 60.5 -154t153.5 -62q91 0 155 62.5t64 155.5t-63 157t-154 64z" />
    <glyph glyph-name="q" unicode="q" horiz-adv-x="682" 
d="M619 547v-739h-74v294h-2q-33 -53 -85.5 -84t-122.5 -31q-125 0 -209 81.5t-84 202.5q0 126 84 207.5t207 81.5q71 -1 125.5 -28.5t88.5 -78.5h2v94h70zM333 493q-91 -1 -154 -64.5t-63 -157.5q0 -93 64.5 -155t154.5 -62t151.5 62.5t62.5 153.5q0 94 -61.5 158
t-154.5 65z" />
    <glyph glyph-name="r" unicode="r" horiz-adv-x="301" 
d="M63 0v547h70v-79h2q22 44 64 68t93 23v-74q-69 -4 -112 -48t-43 -113v-324h-74z" />
    <glyph glyph-name="s" unicode="s" horiz-adv-x="388" 
d="M22 161h74q-4 -44 23 -75.5t76 -31.5q45 -1 70.5 27t25.5 68q0 36 -22 59t-84 45q-79 26 -111 61t-32 92q0 66 42.5 109.5t115.5 44.5q66 0 108.5 -43t42.5 -106h-74q0 36 -22 58.5t-57 23.5q-39 0 -61 -23t-21 -58q0 -35 22 -57t85 -42q81 -27 111.5 -61.5t30.5 -90.5
q0 -78 -47 -125.5t-129 -48.5q-73 0 -120 46t-47 128z" />
    <glyph glyph-name="t" unicode="t" horiz-adv-x="339" 
d="M126 0v480h-114v67h114v193h74v-193h127v-67h-127v-480h-74z" />
    <glyph glyph-name="u" unicode="u" horiz-adv-x="608" 
d="M545 547v-547h-70v79h-2q-31 -46 -77.5 -69t-101.5 -23q-116 0 -178 73.5t-61 198.5v288h74v-288q-1 -97 45.5 -151t128.5 -54q77 0 122 48.5t46 144.5v300h74z" />
    <glyph glyph-name="v" unicode="v" 
d="M238 0l-233 547h80l192 -453l192 453h80l-234 -547h-77z" />
    <glyph glyph-name="w" unicode="w" horiz-adv-x="831" 
d="M213 0l-208 547h78l173 -458l128 391h61l127 -391l176 458h78l-209 -547h-85l-118 363l-116 -363h-85z" />
    <glyph glyph-name="x" unicode="x" horiz-adv-x="480" 
d="M8 0l187 278l-187 269h87l145 -211l145 211h87l-188 -269l188 -278h-87l-145 219l-145 -219h-87z" />
    <glyph glyph-name="y" unicode="y" horiz-adv-x="536" 
d="M450 547h79l-316 -739h-79l91 217l-215 522h88l172 -426z" />
    <glyph glyph-name="z" unicode="z" horiz-adv-x="425" 
d="M10 0v67l298 413h-288v67h376v-67l-298 -413h317v-67h-405z" />
    <glyph glyph-name="braceleft" unicode="{" horiz-adv-x="351" 
d="M37 277v60q37 1 59.5 29t22.5 80v160q-1 66 28.5 99.5t92.5 34.5h31v-60h-10q-35 0 -53.5 -18.5t-18.5 -70.5v-156q0 -61 -23 -91.5t-67 -35.5v-2q44 -6 67 -36.5t23 -90.5v-156q-1 -52 18 -70.5t54 -18.5h10v-60h-31q-63 1 -92 34.5t-29 99.5v160q0 51 -22.5 79
t-59.5 30z" />
    <glyph glyph-name="bar" unicode="|" horiz-adv-x="672" 
d="M304 0v740h64v-740h-64z" />
    <glyph glyph-name="braceright" unicode="}" horiz-adv-x="351" 
d="M314 337v-60q-38 -2 -60 -30t-22 -79v-160q0 -66 -29.5 -100t-91.5 -34h-31v60h10q34 0 53 18.5t19 70.5v156q0 60 22.5 90.5t67.5 36.5v2q-45 5 -67.5 35.5t-22.5 91.5v156q-1 52 -19.5 70t-52.5 19h-10v60h31q62 -1 91 -34.5t30 -99.5v-160q-1 -52 21.5 -80t60.5 -29z
" />
    <glyph glyph-name="asciitilde" unicode="~" horiz-adv-x="606" 
d="M513 391l42 -47q-28 -55 -65 -83t-77 -28q-22 0 -45 7t-86 36q-33 14 -53 20t-35 6q-33 0 -60 -26t-42 -64l-41 48q27 57 64.5 87.5t78.5 30.5q17 0 37.5 -5.5t44.5 -14.5q1 -1 55.5 -25.5t82.5 -24.5t54 22t45 61z" />
    <glyph glyph-name="afii10051" horiz-adv-x="700" 
d="M168 0v673h-160v67h474v-67h-240v-231h169q126 0 189.5 -60.5t63.5 -163.5q-1 -102 -64.5 -160t-188.5 -58h-68v67h68q95 0 137 39.5t42 110.5q-1 80 -47 119t-132 39h-169v-375h-74z" />
    <glyph glyph-name="afii10051" unicode="&#x402;" horiz-adv-x="700" 
d="M168 0v673h-160v67h474v-67h-240v-231h169q126 0 189.5 -60.5t63.5 -163.5q-1 -102 -64.5 -160t-188.5 -58h-68v67h68q95 0 137 39.5t42 110.5q-1 80 -47 119t-132 39h-169v-375h-74z" />
    <glyph glyph-name="afii10052" horiz-adv-x="460" 
d="M74 0v740h379v-67h-305v-673h-74zM194 836l192 116l35 -58l-193 -114z" />
    <glyph glyph-name="afii10052" unicode="&#x403;" horiz-adv-x="460" 
d="M74 0v740h379v-67h-305v-673h-74zM194 836l192 116l35 -58l-193 -114z" />
    <glyph glyph-name="afii10061" horiz-adv-x="600" 
d="M74 740h74v-740h-74v740zM199 379l285 361h88l-285 -353l297 -387h-92zM244 836l192 116l35 -58l-193 -114z" />
    <glyph glyph-name="afii10061" unicode="&#x40c;" horiz-adv-x="600" 
d="M74 740h74v-740h-74v740zM199 379l285 361h88l-285 -353l297 -387h-92zM244 836l192 116l35 -58l-193 -114z" />
    <glyph glyph-name="afii10060" horiz-adv-x="720" 
d="M168 0v673h-160v67h474v-67h-240v-231h175q122 0 184 -51.5t63 -171.5v-219h-74v219q0 91 -43.5 123.5t-129.5 32.5h-175v-375h-74z" />
    <glyph glyph-name="afii10060" unicode="&#x40b;" horiz-adv-x="720" 
d="M168 0v673h-160v67h474v-67h-240v-231h175q122 0 184 -51.5t63 -171.5v-219h-74v219q0 91 -43.5 123.5t-129.5 32.5h-175v-375h-74z" />
    <glyph glyph-name="afii10145" horiz-adv-x="680" 
d="M606 740v-740h-229v-192h-74v192h-229v740h74v-673h384v673h74z" />
    <glyph glyph-name="afii10145" unicode="&#x40f;" horiz-adv-x="680" 
d="M606 740v-740h-229v-192h-74v192h-229v740h74v-673h384v673h74z" />
    <glyph glyph-name="afii10099" horiz-adv-x="610" 
d="M63 0v612h-100v67h100v61h74v-61h286v-67h-286v-184q31 46 76.5 69t100.5 23q113 0 175.5 -74.5t63.5 -197.5v-206q0 -111 -51 -173t-154 -61v71q62 1 96.5 35.5t34.5 127.5v206q0 103 -47 153.5t-127 51.5q-78 -1 -123.5 -49.5t-44.5 -143.5v-260h-74z" />
    <glyph glyph-name="afii10099" unicode="&#x452;" horiz-adv-x="610" 
d="M63 0v612h-100v67h100v61h74v-61h286v-67h-286v-184q31 46 76.5 69t100.5 23q113 0 175.5 -74.5t63.5 -197.5v-206q0 -111 -51 -173t-154 -61v71q62 1 96.5 35.5t34.5 127.5v206q0 103 -47 153.5t-127 51.5q-78 -1 -123.5 -49.5t-44.5 -143.5v-260h-74z" />
    <glyph glyph-name="afii10109" horiz-adv-x="500" 
d="M137 0h-74v547h74v-547zM400 0l-220 277l214 270h87l-210 -264l224 -283h-95zM194 669l192 116l35 -58l-193 -114z" />
    <glyph glyph-name="afii10109" unicode="&#x45c;" horiz-adv-x="500" 
d="M137 0h-74v547h74v-547zM400 0l-220 277l214 270h87l-210 -264l224 -283h-95zM194 669l192 116l35 -58l-193 -114z" />
    <glyph glyph-name="afii10108" horiz-adv-x="610" 
d="M63 0v612h-100v67h100v61h74v-61h286v-67h-286v-184q31 46 76.5 69t100.5 23q113 0 175.5 -74.5t63.5 -197.5v-248h-74v248q0 103 -47 153.5t-127 51.5q-78 -1 -123.5 -49.5t-44.5 -143.5v-260h-74z" />
    <glyph glyph-name="afii10108" unicode="&#x45b;" horiz-adv-x="610" 
d="M63 0v612h-100v67h100v61h74v-61h286v-67h-286v-184q31 46 76.5 69t100.5 23q113 0 175.5 -74.5t63.5 -197.5v-248h-74v248q0 103 -47 153.5t-127 51.5q-78 -1 -123.5 -49.5t-44.5 -143.5v-260h-74z" />
    <glyph glyph-name="afii10062" unicode="&#xa1;" horiz-adv-x="620" 
d="M615 740l-335 -740h-77l87 193l-285 547h84l241 -467l208 467h77zM144 920h72q4 -38 32.5 -58t75.5 -20q46 0 74.5 20t33.5 58h72q-6 -62 -52.5 -101t-127.5 -39q-82 0 -128.5 39t-51.5 101z" />
    <glyph glyph-name="afii10062" unicode="&#x40e;" horiz-adv-x="620" 
d="M615 740l-335 -740h-77l87 193l-285 547h84l241 -467l208 467h77zM144 920h72q4 -38 32.5 -58t75.5 -20q46 0 74.5 20t33.5 58h72q-6 -62 -52.5 -101t-127.5 -39q-82 0 -128.5 39t-51.5 101z" />
    <glyph glyph-name="afii10110" unicode="&#xa2;" horiz-adv-x="536" 
d="M450 547h79l-316 -739h-79l91 217l-215 522h88l172 -426zM134 740h63q5 -34 30 -51.5t59 -17.5q33 0 58 17.5t31 51.5h63q-11 -57 -50.5 -91.5t-101.5 -34.5q-63 0 -102.5 34.5t-49.5 91.5z" />
    <glyph glyph-name="afii10110" unicode="&#x45e;" horiz-adv-x="536" 
d="M450 547h79l-316 -739h-79l91 217l-215 522h88l172 -426zM134 740h63q5 -34 30 -51.5t59 -17.5q33 0 58 17.5t31 51.5h63q-11 -57 -50.5 -91.5t-101.5 -34.5q-63 0 -102.5 34.5t-49.5 91.5z" />
    <glyph glyph-name="afii10057" unicode="&#xa3;" horiz-adv-x="482" 
d="M408 740v-518q-1 -117 -47.5 -176t-143.5 -59q-89 0 -145 50t-59 138h74q4 -56 39 -88.5t91 -32.5q62 0 89.5 39t27.5 129v518h74z" />
    <glyph glyph-name="afii10057" unicode="&#x408;" horiz-adv-x="482" 
d="M408 740v-518q-1 -117 -47.5 -176t-143.5 -59q-89 0 -145 50t-59 138h74q4 -56 39 -88.5t91 -32.5q62 0 89.5 39t27.5 129v518h74z" />
    <glyph glyph-name="currency" unicode="&#xa4;" 
d="M31 110l43 42q-24 31 -36 68t-12 80q0 45 11.5 81.5t36.5 69.5l-43 43l52 53l44 -43q32 24 71 36.5t83 12.5q38 0 74.5 -12t71.5 -37l44 43l52 -53l-43 -43q24 -34 36 -72t12 -84q0 -39 -12 -73.5t-36 -69.5l43 -42l-52 -53l-44 43q-33 -25 -72.5 -37.5t-82.5 -12.5
q-40 0 -77 13t-68 37l-44 -43zM463 303q-1 75 -53.5 128t-128.5 55q-81 1 -136 -53.5t-54 -132.5q0 -77 53.5 -131t130.5 -54q77 -1 132.5 54.5t55.5 133.5z" />
    <glyph glyph-name="afii10050" unicode="&#xa5;" horiz-adv-x="460" 
d="M74 0v740h305v120h74v-187h-305v-673h-74z" />
    <glyph glyph-name="afii10050" unicode="&#x490;" horiz-adv-x="460" 
d="M74 0v740h305v120h74v-187h-305v-673h-74z" />
    <glyph glyph-name="brokenbar" unicode="&#xa6;" horiz-adv-x="672" 
d="M304 0v296h64v-296h-64zM304 444v296h64v-296h-64z" />
    <glyph glyph-name="section" unicode="&#xa7;" horiz-adv-x="615" 
d="M483 608h-70q-7 37 -35.5 58t-70.5 20q-46 -2 -73.5 -28t-26.5 -70q0 -29 15.5 -49t54.5 -39l126 -63q75 -38 101 -70.5t26 -74.5q0 -38 -22 -77.5t-59 -67.5q26 -19 40.5 -47t14.5 -61q0 -70 -52.5 -124t-141.5 -54q-90 0 -147 58.5t-57 145.5h70q0 -62 36.5 -99
t97.5 -38q57 0 88.5 31.5t31.5 77.5q0 28 -19 50t-79 53l-167 83q-37 18 -57 48t-20 67q0 42 22.5 82.5t65.5 70.5q-21 19 -32 44.5t-11 54.5q0 70 46 116.5t126 46.5q77 0 125 -38.5t53 -106.5zM224 270l177 -88q27 16 42.5 43.5t15.5 52.5q0 28 -16.5 49.5t-59.5 43.5
l-165 82q-28 -18 -43.5 -47t-15.5 -58q0 -24 14.5 -42.5t50.5 -35.5z" />
    <glyph glyph-name="afii10023" unicode="&#xa8;" horiz-adv-x="536" 
d="M74 0v740h406v-67h-332v-267h321v-67h-321v-272h332v-67h-406zM158 906h74v-126h-74v126zM332 906h74v-126h-74v126z" />
    <glyph glyph-name="afii10023" unicode="&#x401;" horiz-adv-x="536" 
d="M74 0v740h406v-67h-332v-267h321v-67h-321v-272h332v-67h-406zM158 906h74v-126h-74v126zM332 906h74v-126h-74v126z" />
    <glyph glyph-name="copyright" unicode="&#xa9;" horiz-adv-x="747" 
d="M375 -13q-158 0 -270.5 112.5t-112.5 270.5q0 157 112.5 270t270.5 113t269.5 -112.5t111.5 -270.5q-1 -159 -112 -271t-269 -112zM375 33q139 0 237 98t98 239q-1 140 -98.5 238.5t-236.5 98.5q-141 0 -239 -98.5t-98 -238.5q0 -141 98 -239t239 -98zM571 475h-55
q-23 35 -57 53t-84 18q-78 0 -125.5 -49t-46.5 -124q0 -78 48.5 -126.5t126.5 -48.5q40 -1 78 17.5t62 54.5h55q-33 -60 -85.5 -89t-109.5 -29q-99 -1 -162 60t-63 161q0 94 63.5 156.5t158.5 62.5q74 0 124 -33.5t72 -83.5z" />
    <glyph glyph-name="afii10053" unicode="&#xaa;" horiz-adv-x="811" 
d="M765 551h-88q-40 67 -107 101t-145 34q-125 0 -210.5 -80t-98.5 -200h452v-67h-452q11 -127 101.5 -206.5t212.5 -78.5q71 -1 139 34.5t111 104.5h88q-54 -99 -142 -152.5t-196 -53.5q-166 0 -277 108.5t-111 276.5q0 163 110 272t272 109q115 0 204.5 -53t136.5 -149z
" />
    <glyph glyph-name="afii10053" unicode="&#x404;" horiz-adv-x="811" 
d="M765 551h-88q-40 67 -107 101t-145 34q-125 0 -210.5 -80t-98.5 -200h452v-67h-452q11 -127 101.5 -206.5t212.5 -78.5q71 -1 139 34.5t111 104.5h88q-54 -99 -142 -152.5t-196 -53.5q-166 0 -277 108.5t-111 276.5q0 163 110 272t272 109q115 0 204.5 -53t136.5 -149z
" />
    <glyph glyph-name="guillemotleft" unicode="&#xab;" horiz-adv-x="426" 
d="M117 301l94 -168l-58 -32l-113 200l114 200l58 -32zM291 301l94 -168l-58 -32l-113 200l114 200l58 -32z" />
    <glyph glyph-name="logicalnot" unicode="&#xac;" horiz-adv-x="606" 
d="M479 166v194h-428v76h504v-270h-76z" />
    <glyph glyph-name="hyphen" unicode="&#xad;" horiz-adv-x="332" 
d="M30 334h272v-67h-272v67z" />
    <glyph glyph-name="registered" unicode="&#xae;" horiz-adv-x="747" 
d="M375 -13q-158 0 -270.5 112.5t-112.5 270.5q0 157 112.5 270t270.5 113t269.5 -112.5t111.5 -270.5q-1 -159 -112 -271t-269 -112zM375 33q139 0 237 98t98 239q-1 140 -98.5 238.5t-236.5 98.5q-141 0 -239 -98.5t-98 -238.5q0 -141 98 -239t239 -98zM243 156v427h133
q86 -1 128 -39.5t42 -99.5q0 -52 -36.5 -89t-91.5 -38l122 -161h-60l-150 201h39q65 -1 95.5 23t31.5 66q0 43 -32 67t-95 24h-76v-381h-50z" />
    <glyph glyph-name="afii10056" unicode="&#xaf;" horiz-adv-x="240" 
d="M83 0v740h74v-740h-74zM23 906h74v-126h-74v126zM143 906h74v-126h-74v126z" />
    <glyph glyph-name="afii10056" unicode="&#x407;" horiz-adv-x="240" 
d="M83 0v740h74v-740h-74zM23 906h74v-126h-74v126zM143 906h74v-126h-74v126z" />
    <glyph glyph-name="degree" unicode="&#xb0;" horiz-adv-x="400" 
d="M350 590q0 -62 -44.5 -106t-105.5 -44q-63 0 -106.5 44t-43.5 106q-1 62 43 106t107 44q61 0 105.5 -44.5t44.5 -105.5zM310 590q0 45 -32.5 77t-78.5 33q-46 0 -77.5 -32.5t-31.5 -77.5q0 -47 31.5 -78.5t78.5 -31.5q45 -1 77 31t33 79z" />
    <glyph glyph-name="plusminus" unicode="&#xb1;" horiz-adv-x="606" 
d="M265 392v162h76v-162h214v-76h-214v-162h-76v162h-214v76h214zM51 0v76h504v-76h-504z" />
    <glyph glyph-name="afii10055" unicode="&#xb2;" horiz-adv-x="226" 
d="M76 0v740h74v-740h-74z" />
    <glyph glyph-name="afii10055" unicode="&#x406;" horiz-adv-x="226" 
d="M76 0v740h74v-740h-74z" />
    <glyph glyph-name="afii10103" unicode="&#xb3;" horiz-adv-x="200" 
d="M63 0v547h74v-547h-74zM63 614v126h74v-126h-74z" />
    <glyph glyph-name="afii10103" unicode="&#x456;" horiz-adv-x="200" 
d="M63 0v547h74v-547h-74zM63 614v126h74v-126h-74z" />
    <glyph glyph-name="afii10098" unicode="&#xb4;" horiz-adv-x="360" 
d="M63 547h211v113h74v-180h-211v-480h-74v547z" />
    <glyph glyph-name="afii10098" unicode="&#x491;" horiz-adv-x="360" 
d="M63 547h211v113h74v-180h-211v-480h-74v547z" />
    <glyph glyph-name="mu" unicode="&#xb5;" horiz-adv-x="608" 
d="M67 547h74v-295q0 -94 46 -146t117 -52q70 -1 116.5 51.5t46.5 146.5v295h74v-547h-70v85h-2q-24 -46 -65 -72t-100 -26q-54 0 -94.5 15.5t-68.5 46.5v-241h-74v739z" />
    <glyph glyph-name="paragraph" unicode="&#xb6;" horiz-adv-x="564" 
d="M229 -126v482q-85 -4 -138.5 50t-53.5 140q0 95 56.5 144t166.5 50h231v-866h-74v799h-114v-799h-74z" />
    <glyph glyph-name="afii10071" unicode="&#xb8;" horiz-adv-x="650" 
d="M608 247h-489q6 -83 64 -138t144 -55q63 0 114 33t77 91h77q-34 -89 -105 -140t-163 -51q-122 0 -203.5 81.5t-81.5 204.5q0 124 83 205.5t202 81.5q128 0 205 -88t76 -225zM119 314h409q-16 81 -72.5 130t-128.5 49q-79 -1 -137 -51t-71 -128zM217 740h74v-126h-74v126z
M364 740h74v-126h-74v126z" />
    <glyph glyph-name="afii10071" unicode="&#x451;" horiz-adv-x="650" 
d="M608 247h-489q6 -83 64 -138t144 -55q63 0 114 33t77 91h77q-34 -89 -105 -140t-163 -51q-122 0 -203.5 81.5t-81.5 204.5q0 124 83 205.5t202 81.5q128 0 205 -88t76 -225zM119 314h409q-16 81 -72.5 130t-128.5 49q-79 -1 -137 -51t-71 -128zM217 740h74v-126h-74v126z
M364 740h74v-126h-74v126z" />
    <glyph glyph-name="afii61352" unicode="&#xb9;" horiz-adv-x="1060" 
d="M78 0v740h100l414 -614v614h74v-740h-74l-440 650v-650h-74zM736 590q0 62 43.5 106t106.5 44q61 0 105.5 -44.5t44.5 -105.5q0 -62 -44.5 -106t-105.5 -44q-63 -1 -106.5 43.5t-43.5 106.5zM792 590q0 -39 27.5 -66.5t66.5 -27.5q38 0 65.5 27.5t28.5 66.5
q-1 38 -28.5 66t-65.5 28q-39 0 -67 -28t-27 -66zM750 367h272v-67h-272v67z" />
    <glyph glyph-name="afii61352" unicode="&#x2116;" horiz-adv-x="1060" 
d="M78 0v740h100l414 -614v614h74v-740h-74l-440 650v-650h-74zM736 590q0 62 43.5 106t106.5 44q61 0 105.5 -44.5t44.5 -105.5q0 -62 -44.5 -106t-105.5 -44q-63 -1 -106.5 43.5t-43.5 106.5zM792 590q0 -39 27.5 -66.5t66.5 -27.5q38 0 65.5 27.5t28.5 66.5
q-1 38 -28.5 66t-65.5 28q-39 0 -67 -28t-27 -66zM750 367h272v-67h-272v67z" />
    <glyph glyph-name="afii10101" unicode="&#xba;" horiz-adv-x="645" 
d="M516 160h82q-37 -82 -105 -127t-160 -46q-136 0 -213.5 85.5t-77.5 201.5q0 124 84 204.5t207 81.5q95 -1 164 -49t102 -130h-83q-27 57 -76.5 84.5t-106.5 27.5q-80 -1 -141.5 -48.5t-74.5 -130.5h322v-67h-323q9 -84 71 -138.5t146 -54.5q56 0 104.5 27t78.5 79z" />
    <glyph glyph-name="afii10101" unicode="&#x454;" horiz-adv-x="645" 
d="M516 160h82q-37 -82 -105 -127t-160 -46q-136 0 -213.5 85.5t-77.5 201.5q0 124 84 204.5t207 81.5q95 -1 164 -49t102 -130h-83q-27 57 -76.5 84.5t-106.5 27.5q-80 -1 -141.5 -48.5t-74.5 -130.5h322v-67h-323q9 -84 71 -138.5t146 -54.5q56 0 104.5 27t78.5 79z" />
    <glyph glyph-name="guillemotright" unicode="&#xbb;" horiz-adv-x="426" 
d="M309 301l-95 168l58 32l114 -200l-113 -200l-58 32zM135 301l-95 168l58 32l114 -200l-113 -200l-58 32z" />
    <glyph glyph-name="afii10105" unicode="&#xbc;" horiz-adv-x="203" 
d="M140 547v-505q0 -53 -3.5 -76.5t-10.5 -43.5q-20 -51 -68 -82.5t-103 -31.5v71q53 1 82 35.5t29 127.5v505h74zM66 614v126h74v-126h-74z" />
    <glyph glyph-name="afii10105" unicode="&#x458;" horiz-adv-x="203" 
d="M140 547v-505q0 -53 -3.5 -76.5t-10.5 -43.5q-20 -51 -68 -82.5t-103 -31.5v71q53 1 82 35.5t29 127.5v505h74zM66 614v126h74v-126h-74z" />
    <glyph glyph-name="afii10054" unicode="&#xbd;" horiz-adv-x="498" 
d="M22 207h74q3 -67 41 -110t112 -43q70 -1 111.5 43t41.5 107q0 48 -25.5 81.5t-73.5 52.5q-209 80 -233.5 117t-24.5 97q0 84 57.5 142.5t152.5 58.5q86 0 143.5 -55t59.5 -145h-74q-4 63 -41 98t-97 35q-58 0 -92.5 -36.5t-34.5 -98.5q0 -52 30 -79.5t116 -50.5
q125 -35 168 -88.5t43 -129.5q-1 -95 -65 -155.5t-160 -60.5q-98 0 -164 62t-65 158z" />
    <glyph glyph-name="afii10054" unicode="&#x405;" horiz-adv-x="498" 
d="M22 207h74q3 -67 41 -110t112 -43q70 -1 111.5 43t41.5 107q0 48 -25.5 81.5t-73.5 52.5q-209 80 -233.5 117t-24.5 97q0 84 57.5 142.5t152.5 58.5q86 0 143.5 -55t59.5 -145h-74q-4 63 -41 98t-97 35q-58 0 -92.5 -36.5t-34.5 -98.5q0 -52 30 -79.5t116 -50.5
q125 -35 168 -88.5t43 -129.5q-1 -95 -65 -155.5t-160 -60.5q-98 0 -164 62t-65 158z" />
    <glyph glyph-name="afii10102" unicode="&#xbe;" horiz-adv-x="388" 
d="M22 161h74q-4 -44 23 -75.5t76 -31.5q45 -1 70.5 27t25.5 68q-1 27 -12.5 46t-35.5 34q-9 5 -20.5 9.5t-37.5 14.5q-79 26 -111 61t-32 92q0 66 42.5 109.5t115.5 44.5q66 0 108.5 -43t42.5 -106h-74q0 36 -22 58.5t-57 23.5q-39 0 -61 -23t-21 -58q0 -35 22 -57t85 -42
q81 -27 111.5 -61.5t30.5 -90.5q0 -78 -47 -125.5t-129 -48.5q-73 0 -120 46t-47 128z" />
    <glyph glyph-name="afii10102" unicode="&#x455;" horiz-adv-x="388" 
d="M22 161h74q-4 -44 23 -75.5t76 -31.5q45 -1 70.5 27t25.5 68q-1 27 -12.5 46t-35.5 34q-9 5 -20.5 9.5t-37.5 14.5q-79 26 -111 61t-32 92q0 66 42.5 109.5t115.5 44.5q66 0 108.5 -43t42.5 -106h-74q0 36 -22 58.5t-57 23.5q-39 0 -61 -23t-21 -58q0 -35 22 -57t85 -42
q81 -27 111.5 -61.5t30.5 -90.5q0 -78 -47 -125.5t-129 -48.5q-73 0 -120 46t-47 128z" />
    <glyph glyph-name="afii10104" unicode="&#xbf;" horiz-adv-x="260" 
d="M93 0v547h74v-547h-74zM26 740h74v-126h-74v126zM160 740h74v-126h-74v126z" />
    <glyph glyph-name="afii10104" unicode="&#x457;" horiz-adv-x="260" 
d="M93 0v547h74v-547h-74zM26 740h74v-126h-74v126zM160 740h74v-126h-74v126z" />
    <glyph glyph-name="afii10017" unicode="&#xc0;" horiz-adv-x="740" 
d="M11 0l319 740h82l317 -740h-80l-107 248h-344l-107 -248h-80zM227 315h286l-142 339z" />
    <glyph glyph-name="afii10017" unicode="&#x410;" horiz-adv-x="740" 
d="M11 0l319 740h82l317 -740h-80l-107 248h-344l-107 -248h-80zM227 315h286l-142 339z" />
    <glyph glyph-name="afii10018" unicode="&#xc1;" horiz-adv-x="580" 
d="M74 740h402v-67h-328v-239h170q119 -1 177 -63t58 -154q0 -97 -65.5 -157t-169.5 -60h-244v740zM148 367v-300h171q78 0 119 43t41 107q0 63 -41 106.5t-119 43.5h-171z" />
    <glyph glyph-name="afii10018" unicode="&#x411;" horiz-adv-x="580" 
d="M74 740h402v-67h-328v-239h170q119 -1 177 -63t58 -154q0 -97 -65.5 -157t-169.5 -60h-244v740zM148 367v-300h171q78 0 119 43t41 107q0 63 -41 106.5t-119 43.5h-171z" />
    <glyph glyph-name="afii10019" unicode="&#xc2;" horiz-adv-x="574" 
d="M74 0v740h185q121 -1 183 -48t62 -147q0 -49 -24 -86t-65 -62q58 -18 93.5 -67.5t35.5 -120.5q0 -96 -69 -152.5t-198 -56.5h-203zM148 67h129q96 -1 144 35t48 106q0 73 -47 110t-145 38h-129v-289zM148 423h111q85 -1 128 31t43 94q-1 65 -43.5 95t-127.5 30h-111v-250
z" />
    <glyph glyph-name="afii10019" unicode="&#x412;" horiz-adv-x="574" 
d="M74 0v740h185q121 -1 183 -48t62 -147q0 -49 -24 -86t-65 -62q58 -18 93.5 -67.5t35.5 -120.5q0 -96 -69 -152.5t-198 -56.5h-203zM148 67h129q96 -1 144 35t48 106q0 73 -47 110t-145 38h-129v-289zM148 423h111q85 -1 128 31t43 94q-1 65 -43.5 95t-127.5 30h-111v-250
z" />
    <glyph glyph-name="afii10020" unicode="&#xc3;" horiz-adv-x="460" 
d="M74 0v740h379v-67h-305v-673h-74z" />
    <glyph glyph-name="afii10020" unicode="&#x413;" horiz-adv-x="460" 
d="M74 0v740h379v-67h-305v-673h-74z" />
    <glyph glyph-name="afii10021" unicode="&#xc4;" horiz-adv-x="780" 
d="M430 740l276 -673h67v-207h-74v140h-618v-140h-74v207h67l276 673h80zM154 67h472l-236 578z" />
    <glyph glyph-name="afii10021" unicode="&#x414;" horiz-adv-x="780" 
d="M430 740l276 -673h67v-207h-74v140h-618v-140h-74v207h67l276 673h80zM154 67h472l-236 578z" />
    <glyph glyph-name="afii10022" unicode="&#xc5;" horiz-adv-x="536" 
d="M74 0v740h406v-67h-332v-267h321v-67h-321v-272h332v-67h-406z" />
    <glyph glyph-name="afii10022" unicode="&#x415;" horiz-adv-x="536" 
d="M74 0v740h406v-67h-332v-267h321v-67h-321v-272h332v-67h-406z" />
    <glyph glyph-name="afii10024" unicode="&#xc6;" horiz-adv-x="920" 
d="M423 740h74v-740h-74v740zM390 386l-293 -386h-92l295 393l-273 347h88zM530 386l275 354h88l-273 -347l295 -393h-92z" />
    <glyph glyph-name="afii10024" unicode="&#x416;" horiz-adv-x="920" 
d="M423 740h74v-740h-74v740zM390 386l-293 -386h-92l295 393l-273 347h88zM530 386l275 354h88l-273 -347l295 -393h-92z" />
    <glyph glyph-name="afii10025" unicode="&#xc7;" horiz-adv-x="540" 
d="M64 547q-3 94 57 150t156 56t154.5 -54t58.5 -145q0 -57 -28.5 -100t-83.5 -67q62 -17 96.5 -67.5t35.5 -118.5q0 -99 -67.5 -156.5t-171.5 -57.5q-120 0 -184 70.5t-57 168.5h74q-3 -80 43.5 -126t123.5 -46q79 -1 122 40t43 105q0 72 -47 111t-125 39h-44v67h44
q75 0 113.5 38t38.5 101q0 56 -36.5 93.5t-101.5 37.5q-69 0 -105.5 -41t-34.5 -98h-74z" />
    <glyph glyph-name="afii10025" unicode="&#x417;" horiz-adv-x="540" 
d="M64 547q-3 94 57 150t156 56t154.5 -54t58.5 -145q0 -57 -28.5 -100t-83.5 -67q62 -17 96.5 -67.5t35.5 -118.5q0 -99 -67.5 -156.5t-171.5 -57.5q-120 0 -184 70.5t-57 168.5h74q-3 -80 43.5 -126t123.5 -46q79 -1 122 40t43 105q0 72 -47 111t-125 39h-44v67h44
q75 0 113.5 38t38.5 101q0 56 -36.5 93.5t-101.5 37.5q-69 0 -105.5 -41t-34.5 -98h-74z" />
    <glyph glyph-name="afii10026" unicode="&#xc8;" horiz-adv-x="740" 
d="M74 740h74v-635l440 635h78v-740h-74v635l-440 -635h-78v740z" />
    <glyph glyph-name="afii10026" unicode="&#x418;" horiz-adv-x="740" 
d="M74 740h74v-635l440 635h78v-740h-74v635l-440 -635h-78v740z" />
    <glyph glyph-name="afii10027" unicode="&#xc9;" horiz-adv-x="740" 
d="M74 740h74v-635l440 635h78v-740h-74v635l-440 -635h-78v740zM190 920h72q4 -38 32.5 -58t75.5 -20q46 0 74.5 20t33.5 58h72q-6 -62 -52.5 -101t-127.5 -39q-82 0 -128.5 39t-51.5 101z" />
    <glyph glyph-name="afii10027" unicode="&#x419;" horiz-adv-x="740" 
d="M74 740h74v-635l440 635h78v-740h-74v635l-440 -635h-78v740zM190 920h72q4 -38 32.5 -58t75.5 -20q46 0 74.5 20t33.5 58h72q-6 -62 -52.5 -101t-127.5 -39q-82 0 -128.5 39t-51.5 101z" />
    <glyph glyph-name="afii10028" unicode="&#xca;" horiz-adv-x="600" 
d="M74 740h74v-740h-74v740zM199 379l285 361h88l-285 -353l297 -387h-92z" />
    <glyph glyph-name="afii10028" unicode="&#x41a;" horiz-adv-x="600" 
d="M74 740h74v-740h-74v740zM199 379l285 361h88l-285 -353l297 -387h-92z" />
    <glyph glyph-name="afii10029" unicode="&#xcb;" horiz-adv-x="700" 
d="M386 740l305 -740h-81l-259 647l-261 -647h-81l307 740h70z" />
    <glyph glyph-name="afii10029" unicode="&#x41b;" horiz-adv-x="700" 
d="M386 740l305 -740h-81l-259 647l-261 -647h-81l307 740h70z" />
    <glyph glyph-name="afii10030" unicode="&#xcc;" horiz-adv-x="919" 
d="M74 0v740h114l272 -630l272 630h114v-740h-74v657l-281 -657h-62l-281 657v-657h-74z" />
    <glyph glyph-name="afii10030" unicode="&#x41c;" horiz-adv-x="919" 
d="M74 0v740h114l272 -630l272 630h114v-740h-74v657l-281 -657h-62l-281 657v-657h-74z" />
    <glyph glyph-name="afii10031" unicode="&#xcd;" horiz-adv-x="683" 
d="M74 0v740h74v-326h387v326h74v-740h-74v347h-387v-347h-74z" />
    <glyph glyph-name="afii10031" unicode="&#x41d;" horiz-adv-x="683" 
d="M74 0v740h74v-326h387v326h74v-740h-74v347h-387v-347h-74z" />
    <glyph glyph-name="afii10032" unicode="&#xce;" horiz-adv-x="869" 
d="M434 753q166 0 279 -108t113 -271q0 -166 -113.5 -276.5t-278.5 -110.5q-166 0 -279 108t-113 273t113 275t279 110zM435 54q135 0 226 90.5t91 229.5q0 136 -91 224t-226 88q-137 0 -228 -90.5t-91 -227.5q0 -138 91.5 -226t227.5 -88z" />
    <glyph glyph-name="afii10032" unicode="&#x41e;" horiz-adv-x="869" 
d="M434 753q166 0 279 -108t113 -271q0 -166 -113.5 -276.5t-278.5 -110.5q-166 0 -279 108t-113 273t113 275t279 110zM435 54q135 0 226 90.5t91 229.5q0 136 -91 224t-226 88q-137 0 -228 -90.5t-91 -227.5q0 -138 91.5 -226t227.5 -88z" />
    <glyph glyph-name="afii10033" unicode="&#xcf;" horiz-adv-x="680" 
d="M74 0v740h532v-740h-74v673h-384v-673h-74z" />
    <glyph glyph-name="afii10033" unicode="&#x41f;" horiz-adv-x="680" 
d="M74 0v740h532v-740h-74v673h-384v-673h-74z" />
    <glyph glyph-name="afii10034" unicode="&#xd0;" horiz-adv-x="592" 
d="M74 0v740h234q118 -1 186.5 -57.5t68.5 -164.5q0 -104 -69 -162.5t-186 -58.5h-160v-297h-74zM148 673v-309h161q83 0 131.5 40.5t48.5 113.5t-48.5 114t-131.5 41h-161z" />
    <glyph glyph-name="afii10034" unicode="&#x420;" horiz-adv-x="592" 
d="M74 0v740h234q118 -1 186.5 -57.5t68.5 -164.5q0 -104 -69 -162.5t-186 -58.5h-160v-297h-74zM148 673v-309h161q83 0 131.5 40.5t48.5 113.5t-48.5 114t-131.5 41h-161z" />
    <glyph glyph-name="afii10035" unicode="&#xd1;" horiz-adv-x="813" 
d="M767 551h-88q-39 61 -103.5 98t-148.5 37q-137 0 -224.5 -92.5t-86.5 -221.5q-1 -136 91 -227.5t225 -90.5q71 0 139 35t111 104h88q-53 -97 -142 -151.5t-196 -54.5q-165 0 -277.5 108.5t-112.5 276.5q0 163 111 272t273 109q115 0 204.5 -53.5t136.5 -148.5z" />
    <glyph glyph-name="afii10035" unicode="&#x421;" horiz-adv-x="813" 
d="M767 551h-88q-39 61 -103.5 98t-148.5 37q-137 0 -224.5 -92.5t-86.5 -221.5q-1 -136 91 -227.5t225 -90.5q71 0 139 35t111 104h88q-53 -97 -142 -151.5t-196 -54.5q-165 0 -277.5 108.5t-112.5 276.5q0 163 111 272t273 109q115 0 204.5 -53.5t136.5 -148.5z" />
    <glyph glyph-name="afii10036" unicode="&#xd2;" horiz-adv-x="426" 
d="M176 0v673h-169v67h412v-67h-169v-673h-74z" />
    <glyph glyph-name="afii10036" unicode="&#x422;" horiz-adv-x="426" 
d="M176 0v673h-169v67h412v-67h-169v-673h-74z" />
    <glyph glyph-name="afii10037" unicode="&#xd3;" horiz-adv-x="620" 
d="M615 740l-335 -740h-77l87 193l-285 547h84l241 -467l208 467h77z" />
    <glyph glyph-name="afii10037" unicode="&#x423;" horiz-adv-x="620" 
d="M615 740l-335 -740h-77l87 193l-285 547h84l241 -467l208 467h77z" />
    <glyph glyph-name="afii10038" unicode="&#xd4;" horiz-adv-x="820" 
d="M373 -37v104q-144 1 -237.5 91t-93.5 229q0 138 93.5 228t237.5 92v93h74v-93q143 -2 237 -92t94 -228q0 -139 -94 -229t-237 -91v-104h-74zM373 134v506q-116 0 -187 -73t-70 -180q0 -108 70.5 -181t186.5 -72zM447 640v-506q115 -1 186 72t71 181q0 107 -71 180
t-186 73z" />
    <glyph glyph-name="afii10038" unicode="&#x424;" horiz-adv-x="820" 
d="M373 -37v104q-144 1 -237.5 91t-93.5 229q0 138 93.5 228t237.5 92v93h74v-93q143 -2 237 -92t94 -228q0 -139 -94 -229t-237 -91v-104h-74zM373 134v506q-116 0 -187 -73t-70 -180q0 -108 70.5 -181t186.5 -72zM447 640v-506q115 -1 186 72t71 181q0 107 -71 180
t-186 73z" />
    <glyph glyph-name="afii10039" unicode="&#xd5;" horiz-adv-x="609" 
d="M8 0l251 378l-236 362h87l195 -297l194 297h87l-239 -362l254 -378h-87l-209 316l-210 -316h-87z" />
    <glyph glyph-name="afii10039" unicode="&#x425;" horiz-adv-x="609" 
d="M8 0l251 378l-236 362h87l195 -297l194 297h87l-239 -362l254 -378h-87l-209 316l-210 -316h-87z" />
    <glyph glyph-name="afii10040" unicode="&#xd6;" horiz-adv-x="720" 
d="M606 740v-673h103v-207h-74v140h-561v740h74v-673h384v673h74z" />
    <glyph glyph-name="afii10040" unicode="&#x426;" horiz-adv-x="720" 
d="M606 740v-673h103v-207h-74v140h-561v740h74v-673h384v673h74z" />
    <glyph glyph-name="afii10041" unicode="&#xd7;" horiz-adv-x="620" 
d="M546 740v-740h-74v297h-175q-65 0 -109 12.5t-72 35.5q-35 27 -51 66t-15 109v220h74v-220q-1 -47 10 -76t34 -47q19 -17 53 -25.5t76 -7.5h175v376h74z" />
    <glyph glyph-name="afii10041" unicode="&#x427;" horiz-adv-x="620" 
d="M546 740v-740h-74v297h-175q-65 0 -109 12.5t-72 35.5q-35 27 -51 66t-15 109v220h74v-220q-1 -47 10 -76t34 -47q19 -17 53 -25.5t76 -7.5h175v376h74z" />
    <glyph glyph-name="afii10042" unicode="&#xd8;" horiz-adv-x="960" 
d="M74 740h74v-673h295v673h74v-673h295v673h74v-740h-812v740z" />
    <glyph glyph-name="afii10042" unicode="&#x428;" horiz-adv-x="960" 
d="M74 740h74v-673h295v673h74v-673h295v673h74v-740h-812v740z" />
    <glyph glyph-name="afii10043" unicode="&#xd9;" horiz-adv-x="1000" 
d="M74 740h74v-673h295v673h74v-673h295v673h74v-673h103v-207h-74v140h-841v740z" />
    <glyph glyph-name="afii10043" unicode="&#x429;" horiz-adv-x="1000" 
d="M74 740h74v-673h295v673h74v-673h295v673h74v-673h103v-207h-74v140h-841v740z" />
    <glyph glyph-name="afii10044" unicode="&#xda;" horiz-adv-x="680" 
d="M7 740h241v-306h170q111 0 173 -58.5t62 -158.5q0 -98 -65 -157.5t-170 -59.5h-244v673h-167v67zM248 367v-300h171q78 0 119 43t41 107q0 63 -41 106.5t-119 43.5h-171z" />
    <glyph glyph-name="afii10044" unicode="&#x42a;" horiz-adv-x="680" 
d="M7 740h241v-306h170q111 0 173 -58.5t62 -158.5q0 -98 -65 -157.5t-170 -59.5h-244v673h-167v67zM248 367v-300h171q78 0 119 43t41 107q0 63 -41 106.5t-119 43.5h-171z" />
    <glyph glyph-name="afii10045" unicode="&#xdb;" horiz-adv-x="780" 
d="M74 740h74v-306h170q111 -1 173 -59t62 -158q0 -98 -65 -157.5t-170 -59.5h-244v740zM148 367v-300h171q78 0 119 43t41 107q0 63 -41 106.5t-119 43.5h-171zM632 0v740h74v-740h-74z" />
    <glyph glyph-name="afii10045" unicode="&#x42b;" horiz-adv-x="780" 
d="M74 740h74v-306h170q111 -1 173 -59t62 -158q0 -98 -65 -157.5t-170 -59.5h-244v740zM148 367v-300h171q78 0 119 43t41 107q0 63 -41 106.5t-119 43.5h-171zM632 0v740h74v-740h-74z" />
    <glyph glyph-name="afii10046" unicode="&#xdc;" horiz-adv-x="580" 
d="M74 740h74v-306h170q111 -1 173 -59t62 -158q0 -98 -65 -157.5t-170 -59.5h-244v740zM148 367v-300h171q78 0 119 43t41 107q0 63 -41 106.5t-119 43.5h-171z" />
    <glyph glyph-name="afii10046" unicode="&#x42c;" horiz-adv-x="580" 
d="M74 740h74v-306h170q111 -1 173 -59t62 -158q0 -98 -65 -157.5t-170 -59.5h-244v740zM148 367v-300h171q78 0 119 43t41 107q0 63 -41 106.5t-119 43.5h-171z" />
    <glyph glyph-name="afii10047" unicode="&#xdd;" horiz-adv-x="813" 
d="M134 551h-88q46 96 135 148.5t206 53.5q163 -1 273.5 -109.5t110.5 -271.5q0 -168 -112.5 -276.5t-277.5 -108.5q-108 0 -197 54.5t-141 151.5h88q41 -68 109.5 -103.5t140.5 -35.5q121 -1 212.5 79t103.5 206h-434v67h434q-14 119 -100.5 199t-210.5 81q-79 -1 -146 -35
t-106 -100z" />
    <glyph glyph-name="afii10047" unicode="&#x42d;" horiz-adv-x="813" 
d="M134 551h-88q46 96 135 148.5t206 53.5q163 -1 273.5 -109.5t110.5 -271.5q0 -168 -112.5 -276.5t-277.5 -108.5q-108 0 -197 54.5t-141 151.5h88q41 -68 109.5 -103.5t140.5 -35.5q121 -1 212.5 79t103.5 206h-434v67h434q-14 119 -100.5 199t-210.5 81q-79 -1 -146 -35
t-106 -100z" />
    <glyph glyph-name="afii10048" unicode="&#xde;" horiz-adv-x="1080" 
d="M148 414h129q17 154 124 246.5t256 92.5q163 0 272 -107t109 -272q0 -168 -110.5 -277.5t-270.5 -109.5q-155 0 -265 98t-115 262h-129v-347h-74v740h74v-326zM658 54q130 0 217.5 91t88.5 229q0 135 -88 223.5t-218 88.5q-131 0 -219.5 -91t-87.5 -227q0 -137 88 -226
t219 -88z" />
    <glyph glyph-name="afii10048" unicode="&#x42e;" horiz-adv-x="1080" 
d="M148 414h129q17 154 124 246.5t256 92.5q163 0 272 -107t109 -272q0 -168 -110.5 -277.5t-270.5 -109.5q-155 0 -265 98t-115 262h-129v-347h-74v740h74v-326zM658 54q130 0 217.5 91t88.5 229q0 135 -88 223.5t-218 88.5q-131 0 -219.5 -91t-87.5 -227q0 -137 88 -226
t219 -88z" />
    <glyph glyph-name="afii10049" unicode="&#xdf;" horiz-adv-x="600" 
d="M526 740v-740h-74v673h-133q-109 0 -164.5 -45t-55.5 -123q0 -80 54 -125t166 -45h59l-241 -335h-92l202 276q-100 4 -161 67.5t-61 154.5q0 112 74 176.5t220 65.5h207z" />
    <glyph glyph-name="afii10049" unicode="&#x42f;" horiz-adv-x="600" 
d="M526 740v-740h-74v673h-133q-109 0 -164.5 -45t-55.5 -123q0 -80 54 -125t166 -45h59l-241 -335h-92l202 276q-100 4 -161 67.5t-61 154.5q0 112 74 176.5t220 65.5h207z" />
    <glyph glyph-name="afii10065" unicode="&#xe0;" horiz-adv-x="683" 
d="M620 547v-547h-70v102h-2q-39 -59 -93.5 -87t-119.5 -28q-125 0 -209 81.5t-84 208.5q0 122 83.5 202.5t207.5 80.5q71 0 125 -27t90 -81h2v95h70zM333 493q-91 0 -154.5 -64t-62.5 -158q0 -93 64.5 -155t154.5 -62q89 0 152 63t63 153q0 93 -62.5 158t-154.5 65z" />
    <glyph glyph-name="afii10065" unicode="&#x430;" horiz-adv-x="683" 
d="M620 547v-547h-70v102h-2q-39 -59 -93.5 -87t-119.5 -28q-125 0 -209 81.5t-84 208.5q0 122 83.5 202.5t207.5 80.5q71 0 125 -27t90 -81h2v95h70zM333 493q-91 0 -154.5 -64t-62.5 -158q0 -93 64.5 -155t154.5 -62q89 0 152 63t63 153q0 93 -62.5 158t-154.5 65z" />
    <glyph glyph-name="afii10066" unicode="&#xe1;" horiz-adv-x="660" 
d="M595 740v-67l-235 -16q-118 -9 -181 -70t-70 -187h2q31 70 93 105.5t134 35.5q124 0 202 -76t78 -201q0 -122 -78.5 -199.5t-203.5 -77.5q-146 0 -220.5 95.5t-73.5 260.5q0 180 74.5 274.5t243.5 106.5zM336 474q-91 0 -149.5 -60.5t-58.5 -149.5q0 -90 59 -150t149 -60
q92 0 150 60t58 150q0 93 -58.5 151.5t-149.5 58.5z" />
    <glyph glyph-name="afii10066" unicode="&#x431;" horiz-adv-x="660" 
d="M595 740v-67l-235 -16q-118 -9 -181 -70t-70 -187h2q31 70 93 105.5t134 35.5q124 0 202 -76t78 -201q0 -122 -78.5 -199.5t-203.5 -77.5q-146 0 -220.5 95.5t-73.5 260.5q0 180 74.5 274.5t243.5 106.5zM336 474q-91 0 -149.5 -60.5t-58.5 -149.5q0 -90 59 -150t149 -60
q92 0 150 60t58 150q0 93 -58.5 151.5t-149.5 58.5z" />
    <glyph glyph-name="afii10067" unicode="&#xe2;" horiz-adv-x="480" 
d="M63 547h196q78 0 120 -40t42 -106q-1 -39 -20.5 -69t-52.5 -44q42 -12 67.5 -47t25.5 -83q0 -68 -46.5 -113t-129.5 -45h-202v547zM137 480v-166h117q43 0 67.5 23t25.5 64q0 37 -23 58t-70 21h-117zM137 247v-180h120q53 0 81.5 25t28.5 65q0 41 -28 65t-82 25h-120z
" />
    <glyph glyph-name="afii10067" unicode="&#x432;" horiz-adv-x="480" 
d="M63 547h196q78 0 120 -40t42 -106q-1 -39 -20.5 -69t-52.5 -44q42 -12 67.5 -47t25.5 -83q0 -68 -46.5 -113t-129.5 -45h-202v547zM137 480v-166h117q43 0 67.5 23t25.5 64q0 37 -23 58t-70 21h-117zM137 247v-180h120q53 0 81.5 25t28.5 65q0 41 -28 65t-82 25h-120z
" />
    <glyph glyph-name="afii10068" unicode="&#xe3;" horiz-adv-x="360" 
d="M63 547h285v-67h-211v-480h-74v547z" />
    <glyph glyph-name="afii10068" unicode="&#x433;" horiz-adv-x="360" 
d="M63 547h285v-67h-211v-480h-74v547z" />
    <glyph glyph-name="afii10069" unicode="&#xe4;" horiz-adv-x="640" 
d="M360 547l213 -480h57v-207h-74v140h-472v-140h-74v207h57l213 480h80zM147 67h346l-173 397z" />
    <glyph glyph-name="afii10069" unicode="&#x434;" horiz-adv-x="640" 
d="M360 547l213 -480h57v-207h-74v140h-472v-140h-74v207h57l213 480h80zM147 67h346l-173 397z" />
    <glyph glyph-name="afii10070" unicode="&#xe5;" horiz-adv-x="650" 
d="M608 247h-489q6 -83 64 -138t144 -55q63 0 114 33t77 91h77q-34 -89 -105 -140t-163 -51q-122 0 -203.5 81.5t-81.5 204.5q0 124 83 205.5t202 81.5q128 0 205 -88t76 -225zM119 314h409q-16 81 -72.5 130t-128.5 49q-79 -1 -137 -51t-71 -128z" />
    <glyph glyph-name="afii10070" unicode="&#x435;" horiz-adv-x="650" 
d="M608 247h-489q6 -83 64 -138t144 -55q63 0 114 33t77 91h77q-34 -89 -105 -140t-163 -51q-122 0 -203.5 81.5t-81.5 204.5q0 124 83 205.5t202 81.5q128 0 205 -88t76 -225zM119 314h409q-16 81 -72.5 130t-128.5 49q-79 -1 -137 -51t-71 -128z" />
    <glyph glyph-name="afii10072" unicode="&#xe6;" horiz-adv-x="760" 
d="M99 0h-93l224 285l-204 262h87l204 -270zM417 0h-74v547h74v-547zM661 0l-218 277l204 270h87l-204 -262l224 -285h-93z" />
    <glyph glyph-name="afii10072" unicode="&#x436;" horiz-adv-x="760" 
d="M99 0h-93l224 285l-204 262h87l204 -270zM417 0h-74v547h74v-547zM661 0l-218 277l204 270h87l-204 -262l224 -285h-93z" />
    <glyph glyph-name="afii10073" unicode="&#xe7;" horiz-adv-x="460" 
d="M132 413h-74q6 68 54.5 107.5t121.5 39.5q77 0 124.5 -39t47.5 -104q0 -44 -21.5 -79.5t-61.5 -51.5q46 -13 71.5 -49.5t25.5 -86.5q0 -72 -52 -117t-135 -46q-88 1 -141 44.5t-52 125.5h74q0 -47 31 -75t88 -28q52 -1 82.5 25t30.5 69q0 45 -28.5 72t-84.5 27h-49v67h49
q47 -1 73 26t26 67t-26.5 63t-67.5 23q-47 0 -74 -22t-32 -58z" />
    <glyph glyph-name="afii10073" unicode="&#x437;" horiz-adv-x="460" 
d="M132 413h-74q6 68 54.5 107.5t121.5 39.5q77 0 124.5 -39t47.5 -104q0 -44 -21.5 -79.5t-61.5 -51.5q46 -13 71.5 -49.5t25.5 -86.5q0 -72 -52 -117t-135 -46q-88 1 -141 44.5t-52 125.5h74q0 -47 31 -75t88 -28q52 -1 82.5 25t30.5 69q0 45 -28.5 72t-84.5 27h-49v67h49
q47 -1 73 26t26 67t-26.5 63t-67.5 23q-47 0 -74 -22t-32 -58z" />
    <glyph glyph-name="afii10074" unicode="&#xe8;" horiz-adv-x="600" 
d="M63 547h74v-442l326 442h74v-547h-74v442l-326 -442h-74v547z" />
    <glyph glyph-name="afii10074" unicode="&#x438;" horiz-adv-x="600" 
d="M63 547h74v-442l326 442h74v-547h-74v442l-326 -442h-74v547z" />
    <glyph glyph-name="afii10075" unicode="&#xe9;" horiz-adv-x="600" 
d="M63 547h74v-442l326 442h74v-547h-74v442l-326 -442h-74v547zM148 740h63q5 -34 30 -51.5t59 -17.5q33 0 58 17.5t31 51.5h63q-11 -57 -50.5 -91.5t-101.5 -34.5q-63 0 -102.5 34.5t-49.5 91.5z" />
    <glyph glyph-name="afii10075" unicode="&#x439;" horiz-adv-x="600" 
d="M63 547h74v-442l326 442h74v-547h-74v442l-326 -442h-74v547zM148 740h63q5 -34 30 -51.5t59 -17.5q33 0 58 17.5t31 51.5h63q-11 -57 -50.5 -91.5t-101.5 -34.5q-63 0 -102.5 34.5t-49.5 91.5z" />
    <glyph glyph-name="afii10076" unicode="&#xea;" horiz-adv-x="500" 
d="M137 0h-74v547h74v-547zM400 0l-220 277l214 270h87l-210 -264l224 -283h-95z" />
    <glyph glyph-name="afii10076" unicode="&#x43a;" horiz-adv-x="500" 
d="M137 0h-74v547h74v-547zM400 0l-220 277l214 270h87l-210 -264l224 -283h-95z" />
    <glyph glyph-name="afii10077" unicode="&#xeb;" horiz-adv-x="560" 
d="M319 547l233 -547h-80l-192 453l-192 -453h-80l234 547h77z" />
    <glyph glyph-name="afii10077" unicode="&#x43b;" horiz-adv-x="560" 
d="M319 547l233 -547h-80l-192 453l-192 -453h-80l234 547h77z" />
    <glyph glyph-name="afii10078" unicode="&#xec;" horiz-adv-x="720" 
d="M63 0v547h114l183 -447l183 447h114v-547h-74v465l-191 -465h-64l-191 465v-465h-74z" />
    <glyph glyph-name="afii10078" unicode="&#x43c;" horiz-adv-x="720" 
d="M63 0v547h114l183 -447l183 447h114v-547h-74v465l-191 -465h-64l-191 465v-465h-74z" />
    <glyph glyph-name="afii10079" unicode="&#xed;" horiz-adv-x="580" 
d="M63 547h74v-233h306v233h74v-547h-74v247h-306v-247h-74v547z" />
    <glyph glyph-name="afii10079" unicode="&#x43d;" horiz-adv-x="580" 
d="M63 547h74v-233h306v233h74v-547h-74v247h-306v-247h-74v547z" />
    <glyph glyph-name="afii10080" unicode="&#xee;" horiz-adv-x="655" 
d="M328 560q121 -1 203.5 -83t82.5 -204q0 -123 -82.5 -204.5t-203.5 -81.5q-122 1 -204 82t-82 204q0 122 82 204.5t204 82.5zM328 493q-92 0 -152 -63.5t-60 -156.5q0 -94 60 -156.5t152 -62.5q91 0 151.5 62.5t60.5 156.5q-1 93 -61 156t-151 64z" />
    <glyph glyph-name="afii10080" unicode="&#x43e;" horiz-adv-x="655" 
d="M328 560q121 -1 203.5 -83t82.5 -204q0 -123 -82.5 -204.5t-203.5 -81.5q-122 1 -204 82t-82 204q0 122 82 204.5t204 82.5zM328 493q-92 0 -152 -63.5t-60 -156.5q0 -94 60 -156.5t152 -62.5q91 0 151.5 62.5t60.5 156.5q-1 93 -61 156t-151 64z" />
    <glyph glyph-name="afii10081" unicode="&#xef;" horiz-adv-x="580" 
d="M63 547h454v-547h-74v480h-306v-480h-74v547z" />
    <glyph glyph-name="afii10081" unicode="&#x43f;" horiz-adv-x="580" 
d="M63 547h454v-547h-74v480h-306v-480h-74v547z" />
    <glyph glyph-name="afii10082" unicode="&#xf0;" horiz-adv-x="682" 
d="M63 -192v739h70v-94h2q36 51 91 79t123 28q122 0 206.5 -81t84.5 -208q0 -123 -84 -203t-209 -81q-71 0 -124 30t-84 85h-2v-294h-74zM349 493q-94 0 -155 -65t-61 -158q0 -92 60.5 -154t153.5 -62q91 0 155 62.5t64 155.5t-63 157t-154 64z" />
    <glyph glyph-name="afii10082" unicode="&#x440;" horiz-adv-x="682" 
d="M63 -192v739h70v-94h2q36 51 91 79t123 28q122 0 206.5 -81t84.5 -208q0 -123 -84 -203t-209 -81q-71 0 -124 30t-84 85h-2v-294h-74zM349 493q-94 0 -155 -65t-61 -158q0 -92 60.5 -154t153.5 -62q91 0 155 62.5t64 155.5t-63 157t-154 64z" />
    <glyph glyph-name="afii10083" unicode="&#xf1;" horiz-adv-x="647" 
d="M518 160h82q-37 -82 -105 -127.5t-161 -45.5q-134 0 -213.5 86t-78.5 201q0 122 85.5 204t206.5 82q93 0 163.5 -48.5t103.5 -130.5h-83q-29 57 -79 84t-105 28q-95 0 -156.5 -63.5t-61.5 -154.5q0 -93 63.5 -157t154.5 -64q57 0 106 27.5t78 78.5z" />
    <glyph glyph-name="afii10083" unicode="&#x441;" horiz-adv-x="647" 
d="M518 160h82q-37 -82 -105 -127.5t-161 -45.5q-134 0 -213.5 86t-78.5 201q0 122 85.5 204t206.5 82q93 0 163.5 -48.5t103.5 -130.5h-83q-29 57 -79 84t-105 28q-95 0 -156.5 -63.5t-61.5 -154.5q0 -93 63.5 -157t154.5 -64q57 0 106 27.5t78 78.5z" />
    <glyph glyph-name="afii10084" unicode="&#xf2;" horiz-adv-x="380" 
d="M12 547h356v-67h-141v-480h-74v480h-141v67z" />
    <glyph glyph-name="afii10084" unicode="&#x442;" horiz-adv-x="380" 
d="M12 547h356v-67h-141v-480h-74v480h-141v67z" />
    <glyph glyph-name="afii10085" unicode="&#xf3;" horiz-adv-x="536" 
d="M450 547h79l-316 -739h-79l91 217l-215 522h88l172 -426z" />
    <glyph glyph-name="afii10085" unicode="&#x443;" horiz-adv-x="536" 
d="M450 547h79l-316 -739h-79l91 217l-215 522h88l172 -426z" />
    <glyph glyph-name="afii10086" unicode="&#xf4;" horiz-adv-x="740" 
d="M333 740h74v-180q129 -7 210 -90.5t81 -198.5q0 -113 -84 -195t-207 -89v-179h-74v179q-124 7 -207.5 89t-83.5 195q-1 115 80 198.5t211 90.5v180zM333 54v439q-96 -2 -157 -64.5t-60 -158.5q0 -84 58 -148t159 -68zM407 493v-439q100 4 158 68t59 148q0 96 -61 158.5
t-156 64.5z" />
    <glyph glyph-name="afii10086" unicode="&#x444;" horiz-adv-x="740" 
d="M333 740h74v-180q129 -7 210 -90.5t81 -198.5q0 -113 -84 -195t-207 -89v-179h-74v179q-124 7 -207.5 89t-83.5 195q-1 115 80 198.5t211 90.5v180zM333 54v439q-96 -2 -157 -64.5t-60 -158.5q0 -84 58 -148t159 -68zM407 493v-439q100 4 158 68t59 148q0 96 -61 158.5
t-156 64.5z" />
    <glyph glyph-name="afii10087" unicode="&#xf5;" horiz-adv-x="480" 
d="M8 0l187 278l-187 269h87l145 -211l145 211h87l-188 -269l188 -278h-87l-145 219l-145 -219h-87z" />
    <glyph glyph-name="afii10087" unicode="&#x445;" horiz-adv-x="480" 
d="M8 0l187 278l-187 269h87l145 -211l145 211h87l-188 -269l188 -278h-87l-145 219l-145 -219h-87z" />
    <glyph glyph-name="afii10088" unicode="&#xf6;" horiz-adv-x="620" 
d="M63 547h74v-480h308v480h74v-480h89v-207h-74v140h-471v547z" />
    <glyph glyph-name="afii10088" unicode="&#x446;" horiz-adv-x="620" 
d="M63 547h74v-480h308v480h74v-480h89v-207h-74v140h-471v547z" />
    <glyph glyph-name="afii10089" unicode="&#xf7;" horiz-adv-x="520" 
d="M457 547v-547h-74v206h-141q-66 0 -98.5 11.5t-54.5 37.5q-20 22 -28.5 50.5t-8.5 86.5v155h74v-155q0 -40 6.5 -61.5t21.5 -34.5q12 -12 30 -18t58 -5h141v274h74z" />
    <glyph glyph-name="afii10089" unicode="&#x447;" horiz-adv-x="520" 
d="M457 547v-547h-74v206h-141q-66 0 -98.5 11.5t-54.5 37.5q-20 22 -28.5 50.5t-8.5 86.5v155h74v-155q0 -40 6.5 -61.5t21.5 -34.5q12 -12 30 -18t58 -5h141v274h74z" />
    <glyph glyph-name="afii10090" unicode="&#xf8;" horiz-adv-x="820" 
d="M63 547h74v-480h236v480h74v-480h236v480h74v-547h-694v547z" />
    <glyph glyph-name="afii10090" unicode="&#x448;" horiz-adv-x="820" 
d="M63 547h74v-480h236v480h74v-480h236v480h74v-547h-694v547z" />
    <glyph glyph-name="afii10091" unicode="&#xf9;" horiz-adv-x="860" 
d="M63 547h74v-480h236v480h74v-480h236v480h74v-480h91v-207h-74v140h-711v547z" />
    <glyph glyph-name="afii10091" unicode="&#x449;" horiz-adv-x="860" 
d="M63 547h74v-480h236v480h74v-480h236v480h74v-480h91v-207h-74v140h-711v547z" />
    <glyph glyph-name="afii10092" unicode="&#xfa;" horiz-adv-x="580" 
d="M12 547h205v-209h142q88 -1 139 -47t52 -122q0 -71 -48 -120t-138 -49h-221v480h-131v67zM217 271v-204h146q50 0 81.5 27t31.5 75q0 47 -31.5 74t-81.5 28h-146z" />
    <glyph glyph-name="afii10092" unicode="&#x44a;" horiz-adv-x="580" 
d="M12 547h205v-209h142q88 -1 139 -47t52 -122q0 -71 -48 -120t-138 -49h-221v480h-131v67zM217 271v-204h146q50 0 81.5 27t31.5 75q0 47 -31.5 74t-81.5 28h-146z" />
    <glyph glyph-name="afii10093" unicode="&#xfb;" horiz-adv-x="680" 
d="M63 547h74v-209h147q90 -1 138 -50t48 -119q-1 -71 -48.5 -120t-137.5 -49h-221v547zM137 271v-204h146q50 0 81.5 27t31.5 75q-1 47 -32 74t-81 28h-146zM543 0v547h74v-547h-74z" />
    <glyph glyph-name="afii10093" unicode="&#x44b;" horiz-adv-x="680" 
d="M63 547h74v-209h147q90 -1 138 -50t48 -119q-1 -71 -48.5 -120t-137.5 -49h-221v547zM137 271v-204h146q50 0 81.5 27t31.5 75q-1 47 -32 74t-81 28h-146zM543 0v547h74v-547h-74z" />
    <glyph glyph-name="afii10094" unicode="&#xfc;" horiz-adv-x="500" 
d="M63 547h74v-209h147q90 -1 138 -50t48 -119q-1 -71 -48.5 -120t-137.5 -49h-221v547zM137 271v-204h146q50 0 81.5 27t31.5 75q-1 47 -32 74t-81 28h-146z" />
    <glyph glyph-name="afii10094" unicode="&#x44c;" horiz-adv-x="500" 
d="M63 547h74v-209h147q90 -1 138 -50t48 -119q-1 -71 -48.5 -120t-137.5 -49h-221v547zM137 271v-204h146q50 0 81.5 27t31.5 75q-1 47 -32 74t-81 28h-146z" />
    <glyph glyph-name="afii10095" unicode="&#xfd;" horiz-adv-x="646" 
d="M47 160h82q25 -50 73.5 -78t111.5 -28q82 0 143.5 55t72.5 138h-312v67h312q-15 82 -77 130.5t-139 48.5q-60 -1 -108.5 -30.5t-76.5 -81.5h-83q36 87 107.5 133t160.5 46q122 0 206 -81t84 -205q0 -116 -78.5 -201t-211.5 -86q-92 0 -162.5 43.5t-104.5 129.5z" />
    <glyph glyph-name="afii10095" unicode="&#x44d;" horiz-adv-x="646" 
d="M47 160h82q25 -50 73.5 -78t111.5 -28q82 0 143.5 55t72.5 138h-312v67h312q-15 82 -77 130.5t-139 48.5q-60 -1 -108.5 -30.5t-76.5 -81.5h-83q36 87 107.5 133t160.5 46q122 0 206 -81t84 -205q0 -116 -78.5 -201t-211.5 -86q-92 0 -162.5 43.5t-104.5 129.5z" />
    <glyph glyph-name="afii10096" unicode="&#xfe;" horiz-adv-x="860" 
d="M137 314h110q14 106 93.5 176t192.5 70q121 -1 203 -83t82 -204q0 -123 -82 -204t-203 -82q-111 1 -193.5 72t-92.5 188h-110v-247h-74v547h74v-233zM533 493q-92 0 -152 -63.5t-60 -156.5q0 -94 60 -156.5t152 -62.5q91 0 151 62.5t60 156.5q0 93 -60 156t-151 64z" />
    <glyph glyph-name="afii10096" unicode="&#x44e;" horiz-adv-x="860" 
d="M137 314h110q14 106 93.5 176t192.5 70q121 -1 203 -83t82 -204q0 -123 -82 -204t-203 -82q-111 1 -193.5 72t-92.5 188h-110v-247h-74v547h74v-233zM533 493q-92 0 -152 -63.5t-60 -156.5q0 -94 60 -156.5t152 -62.5q91 0 151 62.5t60 156.5q0 93 -60 156t-151 64z" />
    <glyph glyph-name="afii10097" unicode="&#xff;" horiz-adv-x="520" 
d="M457 547v-547h-74v480h-147q-61 0 -94.5 -31.5t-33.5 -85.5q0 -55 34.5 -83t93.5 -27h75l-182 -253h-85l149 195q-71 5 -115 52.5t-44 119.5q0 74 54 127t148 53h221z" />
    <glyph glyph-name="afii10097" unicode="&#x44f;" horiz-adv-x="520" 
d="M457 547v-547h-74v480h-147q-61 0 -94.5 -31.5t-33.5 -85.5q0 -55 34.5 -83t93.5 -27h75l-182 -253h-85l149 195q-71 5 -115 52.5t-44 119.5q0 74 54 127t148 53h221z" />
    <glyph glyph-name="afii10059" unicode="&#x152;" horiz-adv-x="1040" 
d="M534 740h74v-306h170q119 -1 177 -63t58 -154q0 -97 -65.5 -157t-169.5 -60h-244v367h-386v-367h-74v740h74v-306h386v306zM608 367v-300h171q78 0 119 43t41 107q0 63 -41 106.5t-119 43.5h-171z" />
    <glyph glyph-name="afii10059" unicode="&#x40a;" horiz-adv-x="1040" 
d="M534 740h74v-306h170q119 -1 177 -63t58 -154q0 -97 -65.5 -157t-169.5 -60h-244v367h-386v-367h-74v740h74v-306h386v306zM608 367v-300h171q78 0 119 43t41 107q0 63 -41 106.5t-119 43.5h-171z" />
    <glyph glyph-name="afii10107" unicode="&#x153;" horiz-adv-x="857" 
d="M420 547h74v-209h147q90 -1 138 -50t48 -119q0 -71 -48 -120t-138 -49h-221v271h-283v-271h-74v547h74v-209h283v209zM494 271v-204h146q50 0 81.5 27t31.5 75q0 47 -31.5 74t-81.5 28h-146z" />
    <glyph glyph-name="afii10107" unicode="&#x45a;" horiz-adv-x="857" 
d="M420 547h74v-209h147q90 -1 138 -50t48 -119q0 -71 -48 -120t-138 -49h-221v271h-283v-271h-74v547h74v-209h283v209zM494 271v-204h146q50 0 81.5 27t31.5 75q0 47 -31.5 74t-81.5 28h-146z" />
    <glyph glyph-name="afii10058" unicode="&#x160;" horiz-adv-x="1040" 
d="M534 0v644h-2l-440 -644h-88l510 740h94v-306h170q119 -1 177 -63t58 -154q0 -97 -65.5 -157t-169.5 -60h-244zM608 367v-300h171q78 0 119 43t41 107q0 63 -41 106.5t-119 43.5h-171z" />
    <glyph glyph-name="afii10058" unicode="&#x409;" horiz-adv-x="1040" 
d="M534 0v644h-2l-440 -644h-88l510 740h94v-306h170q119 -1 177 -63t58 -154q0 -97 -65.5 -157t-169.5 -60h-244zM608 367v-300h171q78 0 119 43t41 107q0 63 -41 106.5t-119 43.5h-171z" />
    <glyph glyph-name="afii10106" unicode="&#x161;" horiz-adv-x="840" 
d="M403 0v453h-2l-301 -453h-88l371 547h94v-209h147q90 -1 138 -50t48 -119q0 -71 -48 -120t-138 -49h-221zM477 271v-204h146q50 0 81.5 27t31.5 75q0 47 -31.5 74t-81.5 28h-146z" />
    <glyph glyph-name="afii10106" unicode="&#x459;" horiz-adv-x="840" 
d="M403 0v453h-2l-301 -453h-88l371 547h94v-209h147q90 -1 138 -50t48 -119q0 -71 -48 -120t-138 -49h-221zM477 271v-204h146q50 0 81.5 27t31.5 75q0 47 -31.5 74t-81.5 28h-146z" />
    <glyph glyph-name="afii10193" unicode="&#x178;" horiz-adv-x="580" 
d="M63 547h74v-480h306v480h74v-547h-190v-160h-74v160h-190v547z" />
    <glyph glyph-name="afii10193" unicode="&#x45f;" horiz-adv-x="580" 
d="M63 547h74v-480h306v480h74v-547h-190v-160h-74v160h-190v547z" />
    <glyph glyph-name="afii10100" unicode="&#x192;" horiz-adv-x="360" 
d="M63 547h285v-67h-211v-480h-74v547zM114 669l192 116l35 -58l-193 -114z" />
    <glyph glyph-name="afii10100" unicode="&#x453;" horiz-adv-x="360" 
d="M63 547h285v-67h-211v-480h-74v547zM114 669l192 116l35 -58l-193 -114z" />
    <glyph glyph-name="accent" unicode="&#x2c6;" horiz-adv-x="1" 
d="M-403 669l192 116l35 -58l-193 -114z" />
    <glyph glyph-name="Accent" unicode="&#x2dc;" horiz-adv-x="1" 
d="M-454 836l192 116l35 -58l-193 -114z" />
    <glyph glyph-name="endash" unicode="&#x2013;" horiz-adv-x="500" 
d="M0 334h500v-67h-500v67z" />
    <glyph glyph-name="emdash" unicode="&#x2014;" horiz-adv-x="1000" 
d="M0 334h1000v-67h-1000v67z" />
    <glyph glyph-name="quoteleft" unicode="&#x2018;" horiz-adv-x="351" 
d="M273 547h-74l-88 193h74z" />
    <glyph glyph-name="quoteright" unicode="&#x2019;" horiz-adv-x="351" 
d="M79 547l88 193h74l-88 -193h-74z" />
    <glyph glyph-name="quotesinglbase" unicode="&#x201a;" horiz-adv-x="354" 
d="M80 -67l88 193h74l-88 -193h-74z" />
    <glyph glyph-name="quotedblleft" unicode="&#x201c;" horiz-adv-x="502" 
d="M406 547h-74l-88 193h74zM258 547h-74l-88 193h74z" />
    <glyph glyph-name="quotedblright" unicode="&#x201d;" horiz-adv-x="484" 
d="M87 547l88 193h74l-88 -193h-74zM235 547l88 193h74l-88 -193h-74z" />
    <glyph glyph-name="quotedblbase" unicode="&#x201e;" horiz-adv-x="502" 
d="M96 -67l88 193h74l-88 -193h-74zM244 -67l88 193h74l-88 -193h-74z" />
    <glyph glyph-name="dagger" unicode="&#x2020;" horiz-adv-x="553" 
d="M314 740v-201h181v-67h-181v-599h-74v599h-181v67h181v201h74z" />
    <glyph glyph-name="daggerdbl" unicode="&#x2021;" horiz-adv-x="553" 
d="M314 740v-178h181v-67h-181v-95h181v-67h-181v-461h-74v461h-181v67h181v95h-181v67h181v178h74z" />
    <glyph glyph-name="bullet" unicode="&#x2022;" horiz-adv-x="606" 
d="M143 300q0 66 46.5 112.5t113.5 47.5q66 0 113 -47t47 -113q-1 -67 -47.5 -113.5t-112.5 -46.5q-67 0 -113.5 46.5t-46.5 113.5z" />
    <glyph glyph-name="ellipsis" unicode="&#x2026;" horiz-adv-x="1000" 
d="M130 0v126h74v-126h-74zM463 0v126h74v-126h-74zM796 0v126h74v-126h-74z" />
    <glyph glyph-name="perthousand" unicode="&#x2030;" horiz-adv-x="1174" 
d="M185 0l332 740h72l-332 -740h-72zM18 578q-1 73 50.5 124t124.5 51t124 -51t51 -124q-1 -73 -51.5 -124.5t-123.5 -50.5q-73 0 -124 51t-51 124zM88 578q-1 -44 30 -74.5t75 -30.5q43 0 74 30.5t31 74.5q0 43 -31 74t-74 31q-44 0 -75 -31t-30 -74zM407 162q0 73 51 124
t124 51t123.5 -51t51.5 -124q0 -73 -51 -124t-124 -51t-124 51t-51 124zM477 162q0 -44 30.5 -74.5t74.5 -30.5q43 0 73.5 30.5t31.5 74.5q0 43 -31 74t-74 31q-44 0 -74.5 -31t-30.5 -74zM806 162q-1 73 50.5 123.5t124.5 51.5q73 -1 124 -51.5t51 -123.5t-51 -124
t-124 -51q-73 1 -124 51.5t-51 123.5zM876 162q0 -44 30.5 -74.5t74.5 -30.5q43 0 74 30.5t31 74.5q0 43 -31 74t-74 31q-44 0 -74.5 -31t-30.5 -74z" />
    <glyph glyph-name="guilsinglleft" unicode="&#x2039;" horiz-adv-x="252" 
d="M117 301l94 -168l-58 -32l-113 200l114 200l58 -32z" />
    <glyph glyph-name="guilsinglright" unicode="&#x203a;" horiz-adv-x="252" 
d="M135 301l-95 168l58 32l114 -200l-113 -200l-58 32z" />
    <glyph glyph-name="trademark" unicode="&#x2122;" horiz-adv-x="1000" 
d="M938 740v-420h-66v359l-144 -359h-40l-144 359v-359h-66v420h106l124 -298l124 298h106zM404 740v-60h-133v-360h-74v360h-134v60h341z" />
    <glyph glyph-name="periodcentered" unicode="&#x2219;" horiz-adv-x="250" 
d="M88 238v126h74v-126h-74z" />
    <glyph glyph-name="apple" unicode="&#xf000;" horiz-adv-x="606" 
d="M143 300q0 66 46.5 112.5t113.5 47.5q66 0 113 -47t47 -113q-1 -67 -47.5 -113.5t-112.5 -46.5q-67 0 -113.5 46.5t-46.5 113.5z" />
    <glyph glyph-name="fi" unicode="&#xf001;" horiz-adv-x="487" 
d="M98 0v480h-85v67h85v11q0 81 52 131.5t143 50.5h15v-67h-15q-61 0 -91 -31t-30 -84v-11h252v-547h-74v480h-178v-480h-74zM350 614v126h74v-126h-74z" />
    <glyph glyph-name="uniF002" unicode="&#xf002;" horiz-adv-x="485" 
d="M98 0v480h-85v67h85v11q0 81 52 131.5t143 50.5h15v-67h-15q-61 0 -91 -31t-30 -84v-11h176v193h74v-740h-74v480h-176v-480h-74z" />
    <glyph glyph-name="sterling" 
d="M55 0v67h139q20 20 31 48t11 65q0 47 -23 88t-73 78h-125v67h81q-15 24 -22 47t-7 45q0 100 65 174t180 74q94 0 160 -59t79 -152h-70q-15 62 -61 103t-107 41q-80 0 -127.5 -53t-44.5 -126q1 -31 9.5 -54t26.5 -40h276v-67h-214q34 -35 52.5 -78.5t18.5 -84.5
q0 -28 -7.5 -59t-21.5 -57h38q59 0 86 5.5t50 21.5q29 19 44.5 51t15.5 74q-1 12 -2.5 24t-3.5 24h72q4 -15 6 -29t2 -28q0 -98 -67.5 -154t-192.5 -56h-274z" />
    <glyph glyph-name="notequal" horiz-adv-x="606" 
d="M51 436h275l46 110h71l-46 -110h158v-75h-189l-50 -120h239v-75h-271l-50 -120h-71l50 120h-162v75h194l50 120h-244v75z" />
    <glyph glyph-name="glyph260" horiz-adv-x="375" 
d="M74 836l192 116l35 -58l-193 -114z" />
    <glyph glyph-name="glyph239" horiz-adv-x="375" 
d="M74 669l192 116l35 -58l-193 -114z" />
    <glyph glyph-name="infinity" horiz-adv-x="840" 
d="M403 290q-51 -61 -99.5 -89.5t-99.5 -28.5q-75 0 -122.5 50.5t-47.5 127.5t51.5 128t138.5 51q63 0 113.5 -29.5t92.5 -88.5q44 57 97 87t114 30q75 0 119.5 -46t45.5 -122q0 -85 -53.5 -136.5t-141.5 -51.5q-63 0 -115 29.5t-93 88.5zM368 337q-55 86 -88 109t-70 23
q-51 0 -83.5 -33t-32.5 -86q0 -56 32.5 -87.5t80.5 -30.5q36 0 77.5 26.5t83.5 78.5zM468 366q50 -72 88 -100.5t79 -28.5q44 0 77.5 34t33.5 89q0 46 -30 77t-83 31q-46 0 -87 -26.5t-78 -75.5z" />
    <glyph glyph-name="lessequal" horiz-adv-x="606" 
d="M143 424l414 -191v-73l-509 232v64l509 232v-73zM48 325l509 -232v-73l-509 232v73z" />
    <glyph glyph-name="greaterequal" horiz-adv-x="606" 
d="M462 424l-414 191v73l509 -232v-64l-509 -232v73zM557 325v-73l-509 -232v73z" />
    <glyph glyph-name="radical" horiz-adv-x="660" 
d="M225 500l119 -387l113 707h183v-67h-123l-141 -853h-66l-165 533h-125v67h205z" />
    <glyph glyph-name="florin" 
d="M394 522h111l-12 -67h-111l-84 -448q-13 -65 -22.5 -91t-24.5 -48q-28 -39 -73 -60t-93 -22q-22 0 -38.5 1.5t-28.5 5.5l13 65q13 -2 28 -3.5t26 -2.5q61 0 93.5 36t53.5 144l80 423h-114l12 67h114l2 14q6 42 19.5 80t34.5 66q25 34 62 51.5t83 18.5h21l-13 -71
q-5 1 -9 1.5t-8 1.5q-24 0 -45.5 -11t-35.5 -30q-14 -18 -24.5 -47.5t-14.5 -59.5z" />
    <glyph glyph-name="approxequal" horiz-adv-x="606" 
d="M513 471l42 -47q-28 -55 -65 -83t-77 -28q-22 0 -45 7t-86 36q-33 14 -53 20t-35 6q-33 0 -60 -26t-42 -64l-41 48q27 57 64.5 87.5t78.5 30.5q17 0 37.5 -5.5t44.5 -14.5q1 -1 55.5 -25.5t82.5 -24.5t54 22t45 61zM513 281l42 -47q-28 -55 -65 -83t-77 -28
q-22 -1 -45 6.5t-86 36.5q-33 14 -53 20t-35 6q-33 -1 -60 -26.5t-42 -63.5l-41 48q27 57 64.5 87.5t78.5 30.5q17 0 37.5 -5.5t44.5 -14.5q1 -1 55.5 -25.5t82.5 -24.5t54 22t45 61z" />
    <glyph glyph-name="Delta" horiz-adv-x="740" 
d="M11 0l319 740h82l317 -740h-718zM122 67h495l-246 587z" />
    <glyph glyph-name="divide" horiz-adv-x="606" 
d="M51 263v76h504v-76h-504zM265 477v76h76v-76h-76zM265 49v76h76v-76h-76z" />
    <glyph glyph-name="glyph266" horiz-adv-x="508" 
d="M74 920h72q4 -38 32.5 -58t75.5 -20q46 0 74.5 20t33.5 58h72q-6 -62 -52.5 -101t-127.5 -39q-82 0 -128.5 39t-51.5 101z" />
    <glyph glyph-name="glyph245" horiz-adv-x="453" 
d="M74 740h63q5 -34 30 -51.5t59 -17.5q33 0 58 17.5t31 51.5h63q-11 -57 -50.5 -91.5t-101.5 -34.5q-63 0 -102.5 34.5t-49.5 91.5z" />
    </font>
</defs>
</svg>
